<svg width="255" height="255" viewBox="0 0 255 255" fill="none" xmlns="http://www.w3.org/2000/svg">
<path d="M171.328 23.9062H83.6719C78.3883 23.9062 73.3211 26.0052 69.585 29.7412C65.8489 33.4773 63.75 38.5445 63.75 43.8281V211.172C63.75 216.455 65.8489 221.523 69.585 225.259C73.3211 228.995 78.3883 231.094 83.6719 231.094H171.328C173.944 231.094 176.535 230.578 178.952 229.577C181.369 228.576 183.565 227.109 185.415 225.259C187.265 223.409 188.732 221.213 189.734 218.796C190.735 216.379 191.25 213.788 191.25 211.172V43.8281C191.25 41.2119 190.735 38.6214 189.734 36.2044C188.732 33.7873 187.265 31.5911 185.415 29.7412C183.565 27.8913 181.369 26.4239 178.952 25.4227C176.535 24.4215 173.944 23.9062 171.328 23.9062ZM183.281 211.172C183.281 214.342 182.022 217.382 179.78 219.624C177.539 221.866 174.498 223.125 171.328 223.125H83.6719C80.5017 223.125 77.4614 221.866 75.2197 219.624C72.9781 217.382 71.7188 214.342 71.7188 211.172V43.8281C71.7188 40.658 72.9781 37.6176 75.2197 35.376C77.4614 33.1343 80.5017 31.875 83.6719 31.875H171.328C174.498 31.875 177.539 33.1343 179.78 35.376C182.022 37.6176 183.281 40.658 183.281 43.8281V211.172Z" fill="#ECEEEF"/>
<path d="M79.6875 191.25H175.312V55.7812H79.6875V191.25ZM87.6562 63.75H167.344V183.281H87.6562V63.75Z" fill="#ECEEEF"/>
<path d="M127.5 215.156C131.901 215.156 135.469 211.589 135.469 207.188C135.469 202.786 131.901 199.219 127.5 199.219C123.099 199.219 119.531 202.786 119.531 207.188C119.531 211.589 123.099 215.156 127.5 215.156Z" fill="#ECEEEF"/>
<path d="M143.438 39.8438H111.562V47.8125H143.438V39.8438Z" fill="#ECEEEF"/>
</svg>
