<svg width="180" height="75" viewBox="0 0 180 75" fill="none" xmlns="http://www.w3.org/2000/svg">
<rect x="1" y="1" width="89" height="14" fill="#44BCFF"/>
<rect x="90" y="1" width="89" height="14" fill="#44BCFF"/>
<path d="M32.4689 12V5H33.4189V12H32.4689ZM35.0178 12V5H37.6078C38.2844 5 38.8844 5.13833 39.4078 5.415C39.9311 5.69167 40.3411 6.09167 40.6378 6.615C40.9378 7.135 41.0878 7.76333 41.0878 8.5C41.0878 9.23667 40.9378 9.86667 40.6378 10.39C40.3411 10.91 39.9311 11.3083 39.4078 11.585C38.8844 11.8617 38.2844 12 37.6078 12H35.0178ZM35.9678 11.14H37.6078C38.1411 11.14 38.5878 11.03 38.9478 10.81C39.3111 10.5867 39.5844 10.2767 39.7678 9.88C39.9544 9.48333 40.0478 9.02333 40.0478 8.5C40.0478 7.97667 39.9544 7.51667 39.7678 7.12C39.5844 6.72333 39.3111 6.415 38.9478 6.195C38.5878 5.97167 38.1411 5.86 37.6078 5.86H35.9678V11.14ZM45.9462 10.11H42.9462V9.25H45.9462V10.11ZM44.3062 5.93H44.5862L42.4362 12H41.4362L43.9462 5H44.9462L47.4562 12H46.4562L44.3062 5.93ZM48.3283 12V5H50.9183C51.595 5 52.195 5.13833 52.7183 5.415C53.2417 5.69167 53.6517 6.09167 53.9483 6.615C54.2483 7.135 54.3983 7.76333 54.3983 8.5C54.3983 9.23667 54.2483 9.86667 53.9483 10.39C53.6517 10.91 53.2417 11.3083 52.7183 11.585C52.195 11.8617 51.595 12 50.9183 12H48.3283ZM49.2783 11.14H50.9183C51.4517 11.14 51.8983 11.03 52.2583 10.81C52.6217 10.5867 52.895 10.2767 53.0783 9.88C53.265 9.48333 53.3583 9.02333 53.3583 8.5C53.3583 7.97667 53.265 7.51667 53.0783 7.12C52.895 6.72333 52.6217 6.415 52.2583 6.195C51.8983 5.97167 51.4517 5.86 50.9183 5.86H49.2783V11.14ZM55.5939 12V5H59.8639V5.86H56.5439V7.91H59.1839V8.77H56.5439V11.14H59.9539V12H55.5939Z" fill="#ECEEEF"/>
<path d="M30.1363 43L29.6163 42.512C29.8376 42.3973 30.0523 42.264 30.2603 42.112C30.4709 41.9573 30.6669 41.7853 30.8483 41.596C31.0296 41.404 31.1883 41.1987 31.3243 40.98C31.4603 40.7587 31.5669 40.524 31.6443 40.276C31.7216 40.0253 31.7603 39.7653 31.7603 39.496L32.0163 39.928C31.8883 40.184 31.6923 40.3867 31.4283 40.536C31.1643 40.6853 30.8536 40.76 30.4963 40.76C30.1709 40.76 29.8829 40.6867 29.6323 40.54C29.3816 40.3907 29.1856 40.188 29.0443 39.932C28.9029 39.676 28.8323 39.3867 28.8323 39.064C28.8323 38.7173 28.9096 38.4107 29.0643 38.144C29.2189 37.8773 29.4336 37.668 29.7083 37.516C29.9856 37.364 30.3069 37.288 30.6723 37.288C31.0643 37.288 31.3989 37.376 31.6763 37.552C31.9563 37.7253 32.1696 37.968 32.3163 38.28C32.4629 38.592 32.5363 38.9547 32.5363 39.368C32.5363 39.7947 32.4656 40.196 32.3243 40.572C32.1829 40.9453 31.9949 41.288 31.7603 41.6C31.5283 41.9093 31.2709 42.1827 30.9883 42.42C30.7056 42.6573 30.4216 42.8507 30.1363 43ZM30.6723 40.104C30.9923 40.104 31.2496 40.0013 31.4443 39.796C31.6389 39.5907 31.7363 39.336 31.7363 39.032C31.7363 38.7147 31.6389 38.4547 31.4443 38.252C31.2496 38.0467 30.9923 37.944 30.6723 37.944C30.3523 37.944 30.0963 38.0493 29.9043 38.26C29.7123 38.4707 29.6163 38.7307 29.6163 39.04C29.6163 39.3387 29.7123 39.5907 29.9043 39.796C30.0963 40.0013 30.3523 40.104 30.6723 40.104ZM36.232 43.08C35.9894 43.08 35.7774 43.0307 35.596 42.932C35.4147 42.8333 35.2734 42.6987 35.172 42.528C35.0734 42.3573 35.024 42.1627 35.024 41.944C35.024 41.7227 35.072 41.5333 35.168 41.376C35.2667 41.216 35.3974 41.084 35.56 40.98C35.7254 40.8733 35.9094 40.7893 36.112 40.728C36.3147 40.664 36.524 40.6187 36.74 40.592C36.9587 40.5627 37.168 40.5467 37.368 40.544C37.368 40.1707 37.2947 39.9267 37.148 39.812C37.0014 39.6973 36.7894 39.64 36.512 39.64C36.3654 39.64 36.208 39.6627 36.04 39.708C35.8747 39.7533 35.688 39.848 35.48 39.992L35.376 39.408C35.5334 39.288 35.7294 39.1907 35.964 39.116C36.1987 39.0387 36.4454 39 36.704 39C37.0347 39 37.3014 39.0587 37.504 39.176C37.7067 39.2907 37.8547 39.4853 37.948 39.76C38.0414 40.0347 38.088 40.408 38.088 40.88V41.68C38.088 41.8667 38.096 42.0213 38.112 42.144C38.1307 42.264 38.1707 42.3547 38.232 42.416C38.296 42.4747 38.3974 42.504 38.536 42.504H38.608L38.496 43.08H38.44C38.208 43.08 38.028 43.0573 37.9 43.012C37.7747 42.9667 37.6787 42.9013 37.612 42.816C37.5454 42.7307 37.4854 42.6267 37.432 42.504C37.2854 42.6747 37.112 42.8133 36.912 42.92C36.712 43.0267 36.4854 43.08 36.232 43.08ZM36.368 42.504C36.56 42.504 36.7454 42.456 36.924 42.36C37.1054 42.264 37.2534 42.136 37.368 41.976V41.04C36.9867 41.0533 36.6774 41.0907 36.44 41.152C36.2054 41.2133 36.0334 41.3053 35.924 41.428C35.8147 41.5507 35.76 41.7093 35.76 41.904C35.76 42.1147 35.816 42.268 35.928 42.364C36.0427 42.4573 36.1894 42.504 36.368 42.504ZM41.7047 43V38.496C41.5127 38.6507 41.354 38.7613 41.2287 38.828C41.1033 38.8947 40.9847 38.9467 40.8727 38.984L40.7447 38.272C40.8887 38.224 41.0353 38.156 41.1847 38.068C41.3367 37.9773 41.4767 37.8747 41.6047 37.76C41.7353 37.6453 41.8407 37.5253 41.9207 37.4H42.4407V43H41.7047ZM44.314 43V38.496C44.122 38.6507 43.9634 38.7613 43.838 38.828C43.7127 38.8947 43.594 38.9467 43.482 38.984L43.354 38.272C43.498 38.224 43.6447 38.156 43.794 38.068C43.946 37.9773 44.086 37.8747 44.214 37.76C44.3447 37.6453 44.45 37.5253 44.53 37.4H45.05V43H44.314ZM48.8883 43.08C48.6456 43.08 48.4336 43.0307 48.2523 42.932C48.0709 42.8333 47.9296 42.6987 47.8283 42.528C47.7296 42.3573 47.6803 42.1627 47.6803 41.944C47.6803 41.7227 47.7283 41.5333 47.8243 41.376C47.9229 41.216 48.0536 41.084 48.2163 40.98C48.3816 40.8733 48.5656 40.7893 48.7683 40.728C48.9709 40.664 49.1803 40.6187 49.3963 40.592C49.6149 40.5627 49.8243 40.5467 50.0243 40.544C50.0243 40.1707 49.9509 39.9267 49.8043 39.812C49.6576 39.6973 49.4456 39.64 49.1683 39.64C49.0216 39.64 48.8643 39.6627 48.6963 39.708C48.5309 39.7533 48.3443 39.848 48.1363 39.992L48.0323 39.408C48.1896 39.288 48.3856 39.1907 48.6203 39.116C48.8549 39.0387 49.1016 39 49.3603 39C49.6909 39 49.9576 39.0587 50.1603 39.176C50.3629 39.2907 50.5109 39.4853 50.6043 39.76C50.6976 40.0347 50.7443 40.408 50.7443 40.88V41.68C50.7443 41.8667 50.7523 42.0213 50.7683 42.144C50.7869 42.264 50.8269 42.3547 50.8883 42.416C50.9523 42.4747 51.0536 42.504 51.1923 42.504H51.2643L51.1523 43.08H51.0963C50.8643 43.08 50.6843 43.0573 50.5563 43.012C50.4309 42.9667 50.3349 42.9013 50.2683 42.816C50.2016 42.7307 50.1416 42.6267 50.0883 42.504C49.9416 42.6747 49.7683 42.8133 49.5683 42.92C49.3683 43.0267 49.1416 43.08 48.8883 43.08ZM49.0243 42.504C49.2163 42.504 49.4016 42.456 49.5803 42.36C49.7616 42.264 49.9096 42.136 50.0243 41.976V41.04C49.6429 41.0533 49.3336 41.0907 49.0963 41.152C48.8616 41.2133 48.6896 41.3053 48.5803 41.428C48.4709 41.5507 48.4163 41.7093 48.4163 41.904C48.4163 42.1147 48.4723 42.268 48.5843 42.364C48.6989 42.4573 48.8456 42.504 49.0243 42.504ZM51.82 43V39.08H52.38L52.524 39.832L52.244 39.712C52.508 39.4187 52.7654 39.2267 53.016 39.136C53.2694 39.0453 53.516 39 53.756 39C54.3294 39 54.7387 39.1653 54.984 39.496C55.232 39.8267 55.356 40.2747 55.356 40.84V43H54.636V40.84C54.636 40.424 54.5587 40.12 54.404 39.928C54.2494 39.736 53.9854 39.64 53.612 39.64C53.348 39.64 53.1054 39.6987 52.884 39.816C52.6654 39.9307 52.5214 40.1147 52.452 40.368L52.54 39.928V43H51.82ZM58.0008 43.08C57.5901 43.08 57.2394 42.9893 56.9488 42.808C56.6608 42.624 56.4394 42.3787 56.2848 42.072C56.1328 41.7627 56.0568 41.4187 56.0568 41.04C56.0568 40.6613 56.1328 40.3187 56.2848 40.012C56.4394 39.7027 56.6608 39.4573 56.9488 39.276C57.2394 39.092 57.5901 39 58.0008 39C58.4088 39 58.7581 39.092 59.0488 39.276C59.3394 39.4573 59.5608 39.7027 59.7128 40.012C59.8674 40.3187 59.9448 40.6613 59.9448 41.04C59.9448 41.4187 59.8674 41.7627 59.7128 42.072C59.5608 42.3787 59.3394 42.624 59.0488 42.808C58.7581 42.9893 58.4088 43.08 58.0008 43.08ZM58.0008 42.44C58.3901 42.44 58.6888 42.3173 58.8968 42.072C59.1048 41.824 59.2088 41.48 59.2088 41.04C59.2088 40.6 59.1048 40.2573 58.8968 40.012C58.6888 39.764 58.3901 39.64 58.0008 39.64C57.6141 39.64 57.3154 39.764 57.1048 40.012C56.8968 40.2573 56.7928 40.6 56.7928 41.04C56.7928 41.48 56.8968 41.824 57.1048 42.072C57.3154 42.3173 57.6141 42.44 58.0008 42.44ZM61.7992 43.08C61.4526 43.08 61.1646 43.0387 60.9352 42.956C60.7086 42.8733 60.5486 42.8 60.4552 42.736L60.5432 42.04C60.6286 42.1147 60.7792 42.2 60.9952 42.296C61.2112 42.392 61.4686 42.44 61.7672 42.44C62.0206 42.44 62.2139 42.3973 62.3472 42.312C62.4832 42.2267 62.5512 42.1067 62.5512 41.952C62.5512 41.816 62.5072 41.7067 62.4192 41.624C62.3339 41.5387 62.2299 41.472 62.1072 41.424C61.9872 41.3733 61.8739 41.3333 61.7672 41.304C61.5886 41.256 61.4032 41.196 61.2112 41.124C61.0219 41.0493 60.8619 40.9387 60.7312 40.792C60.6006 40.6453 60.5352 40.44 60.5352 40.176C60.5352 39.976 60.5832 39.7867 60.6792 39.608C60.7752 39.4267 60.9312 39.28 61.1472 39.168C61.3632 39.056 61.6499 39 62.0072 39C62.2686 39 62.4806 39.028 62.6432 39.084C62.8086 39.1373 62.9512 39.1947 63.0712 39.256L62.9832 39.912C62.8686 39.816 62.7352 39.7347 62.5832 39.668C62.4312 39.6013 62.2446 39.568 62.0232 39.568C61.7992 39.568 61.6166 39.6107 61.4752 39.696C61.3339 39.7787 61.2632 39.912 61.2632 40.096C61.2632 40.28 61.3379 40.4107 61.4872 40.488C61.6392 40.5653 61.8686 40.6507 62.1752 40.744C62.2712 40.7707 62.3819 40.8093 62.5072 40.86C62.6352 40.9107 62.7592 40.9787 62.8792 41.064C62.9992 41.1493 63.0979 41.2613 63.1752 41.4C63.2552 41.536 63.2952 41.7067 63.2952 41.912C63.2952 42.0853 63.2539 42.2627 63.1712 42.444C63.0886 42.6227 62.9392 42.7733 62.7232 42.896C62.5072 43.0187 62.1992 43.08 61.7992 43.08Z" fill="#ECEEEF"/>
<path d="M31.6953 25.488H29.2953V24.8H31.6953V25.488ZM30.3832 22.144H30.6073L28.8873 27H28.0873L30.0953 21.4H30.8953L32.9033 27H32.1033L30.3832 22.144ZM34.5822 27.08C34.3342 27.08 34.1355 27.0347 33.9862 26.944C33.8369 26.8533 33.7275 26.7373 33.6582 26.596C33.5915 26.452 33.5582 26.3013 33.5582 26.144V23.64H32.8862L32.9502 23.08H33.5582V22.112L34.2782 22.04V23.08H35.3102V23.64H34.2782V25.704C34.2782 25.9547 34.2929 26.136 34.3222 26.248C34.3515 26.36 34.4235 26.4307 34.5382 26.46C34.6555 26.4893 34.8435 26.504 35.1022 26.504H35.2862L35.2302 27.08H34.5822ZM37.7743 27.08C37.3129 27.08 36.9249 26.9853 36.6103 26.796C36.2956 26.6067 36.0569 26.356 35.8943 26.044C35.7343 25.7293 35.6543 25.384 35.6543 25.008C35.6543 24.6427 35.7289 24.308 35.8783 24.004C36.0303 23.7 36.2489 23.4573 36.5343 23.276C36.8223 23.092 37.1689 23 37.5743 23C37.8996 23 38.1889 23.0653 38.4423 23.196C38.6983 23.324 38.8983 23.512 39.0423 23.76C39.1889 24.0053 39.2623 24.304 39.2623 24.656C39.2623 24.712 39.2596 24.7733 39.2543 24.84C39.2516 24.904 39.2436 24.9707 39.2303 25.04H36.3903C36.4249 25.4027 36.5116 25.6853 36.6503 25.888C36.7889 26.0907 36.9636 26.2333 37.1743 26.316C37.3849 26.3987 37.6143 26.44 37.8623 26.44C38.0436 26.44 38.2329 26.4213 38.4303 26.384C38.6276 26.3467 38.8143 26.288 38.9903 26.208L39.0863 26.776C38.9343 26.8427 38.7489 26.9107 38.5303 26.98C38.3116 27.0467 38.0596 27.08 37.7743 27.08ZM36.4543 24.544H38.5183C38.5183 24.36 38.4836 24.2 38.4143 24.064C38.3449 23.928 38.2396 23.824 38.0983 23.752C37.9569 23.6773 37.7769 23.64 37.5583 23.64C37.2383 23.64 36.9916 23.72 36.8183 23.88C36.6476 24.0373 36.5263 24.2587 36.4543 24.544ZM36.8863 22.392V21.904L38.3823 21.024V21.808L36.8863 22.392ZM43.7209 27.112C43.3209 27.112 42.9755 27.04 42.6849 26.896C42.3942 26.7493 42.1702 26.548 42.0129 26.292C41.8555 26.0333 41.7769 25.736 41.7769 25.4C41.7769 25.0533 41.8582 24.7507 42.0209 24.492C42.1835 24.2333 42.4102 24.032 42.7009 23.888C42.9942 23.744 43.3342 23.672 43.7209 23.672C44.1075 23.672 44.4462 23.744 44.7369 23.888C45.0302 24.032 45.2582 24.2333 45.4209 24.492C45.5835 24.7507 45.6649 25.0533 45.6649 25.4C45.6649 25.736 45.5849 26.0333 45.4249 26.292C45.2675 26.548 45.0435 26.7493 44.7529 26.896C44.4622 27.04 44.1182 27.112 43.7209 27.112ZM43.7209 26.424C44.0889 26.424 44.3742 26.3307 44.5769 26.144C44.7795 25.9547 44.8809 25.7067 44.8809 25.4C44.8809 25.08 44.7795 24.816 44.5769 24.608C44.3742 24.4 44.0889 24.296 43.7209 24.296C43.3529 24.296 43.0675 24.4 42.8649 24.608C42.6622 24.816 42.5609 25.08 42.5609 25.4C42.5609 25.7067 42.6622 25.9547 42.8649 26.144C43.0675 26.3307 43.3529 26.424 43.7209 26.424ZM43.7209 24.256C43.4089 24.256 43.1249 24.1947 42.8689 24.072C42.6155 23.9467 42.4129 23.7747 42.2609 23.556C42.1089 23.3373 42.0329 23.0853 42.0329 22.8C42.0329 22.5547 42.0902 22.316 42.2049 22.084C42.3195 21.852 42.5009 21.6613 42.7489 21.512C42.9969 21.3627 43.3209 21.288 43.7209 21.288C44.1209 21.288 44.4422 21.3627 44.6849 21.512C44.9275 21.6613 45.1035 21.852 45.2129 22.084C45.3222 22.316 45.3769 22.5547 45.3769 22.8C45.3769 23.0853 45.3089 23.3373 45.1729 23.556C45.0369 23.7747 44.8449 23.9467 44.5969 24.072C44.3489 24.1947 44.0569 24.256 43.7209 24.256ZM43.7209 23.632C44.0169 23.632 44.2395 23.5507 44.3889 23.388C44.5409 23.2227 44.6169 23.0267 44.6169 22.8C44.6169 22.5547 44.5409 22.356 44.3889 22.204C44.2395 22.052 44.0169 21.976 43.7209 21.976C43.4249 21.976 43.1955 22.052 43.0329 22.204C42.8729 22.356 42.7929 22.5547 42.7929 22.8C42.7929 23.0267 42.8729 23.2227 43.0329 23.388C43.1955 23.5507 43.4249 23.632 43.7209 23.632ZM49.3453 27.08C49.1026 27.08 48.8906 27.0307 48.7093 26.932C48.528 26.8333 48.3866 26.6987 48.2853 26.528C48.1866 26.3573 48.1373 26.1627 48.1373 25.944C48.1373 25.7227 48.1853 25.5333 48.2813 25.376C48.38 25.216 48.5106 25.084 48.6733 24.98C48.8386 24.8733 49.0226 24.7893 49.2253 24.728C49.428 24.664 49.6373 24.6187 49.8533 24.592C50.072 24.5627 50.2813 24.5467 50.4813 24.544C50.4813 24.1707 50.408 23.9267 50.2613 23.812C50.1146 23.6973 49.9026 23.64 49.6253 23.64C49.4786 23.64 49.3213 23.6627 49.1533 23.708C48.988 23.7533 48.8013 23.848 48.5933 23.992L48.4893 23.408C48.6466 23.288 48.8426 23.1907 49.0773 23.116C49.312 23.0387 49.5586 23 49.8173 23C50.148 23 50.4146 23.0587 50.6173 23.176C50.82 23.2907 50.968 23.4853 51.0613 23.76C51.1546 24.0347 51.2013 24.408 51.2013 24.88V25.68C51.2013 25.8667 51.2093 26.0213 51.2253 26.144C51.244 26.264 51.284 26.3547 51.3453 26.416C51.4093 26.4747 51.5106 26.504 51.6493 26.504H51.7213L51.6093 27.08H51.5533C51.3213 27.08 51.1413 27.0573 51.0133 27.012C50.888 26.9667 50.792 26.9013 50.7253 26.816C50.6586 26.7307 50.5986 26.6267 50.5453 26.504C50.3986 26.6747 50.2253 26.8133 50.0253 26.92C49.8253 27.0267 49.5986 27.08 49.3453 27.08ZM49.4813 26.504C49.6733 26.504 49.8586 26.456 50.0373 26.36C50.2186 26.264 50.3666 26.136 50.4813 25.976V25.04C50.1 25.0533 49.7906 25.0907 49.5533 25.152C49.3186 25.2133 49.1466 25.3053 49.0373 25.428C48.928 25.5507 48.8733 25.7093 48.8733 25.904C48.8733 26.1147 48.9293 26.268 49.0413 26.364C49.156 26.4573 49.3026 26.504 49.4813 26.504ZM52.2771 27V23.08H52.8371L52.9811 23.832L52.7011 23.712C52.9651 23.4187 53.2224 23.2267 53.4731 23.136C53.7264 23.0453 53.9731 23 54.2131 23C54.7864 23 55.1957 23.1653 55.4411 23.496C55.6891 23.8267 55.8131 24.2747 55.8131 24.84V27H55.0931V24.84C55.0931 24.424 55.0157 24.12 54.8611 23.928C54.7064 23.736 54.4424 23.64 54.0691 23.64C53.8051 23.64 53.5624 23.6987 53.3411 23.816C53.1224 23.9307 52.9784 24.1147 52.9091 24.368L52.9971 23.928V27H52.2771ZM58.4578 27.08C58.0471 27.08 57.6965 26.9893 57.4058 26.808C57.1178 26.624 56.8965 26.3787 56.7418 26.072C56.5898 25.7627 56.5138 25.4187 56.5138 25.04C56.5138 24.6613 56.5898 24.3187 56.7418 24.012C56.8965 23.7027 57.1178 23.4573 57.4058 23.276C57.6965 23.092 58.0471 23 58.4578 23C58.8658 23 59.2151 23.092 59.5058 23.276C59.7965 23.4573 60.0178 23.7027 60.1698 24.012C60.3245 24.3187 60.4018 24.6613 60.4018 25.04C60.4018 25.4187 60.3245 25.7627 60.1698 26.072C60.0178 26.3787 59.7965 26.624 59.5058 26.808C59.2151 26.9893 58.8658 27.08 58.4578 27.08ZM58.4578 26.44C58.8471 26.44 59.1458 26.3173 59.3538 26.072C59.5618 25.824 59.6658 25.48 59.6658 25.04C59.6658 24.6 59.5618 24.2573 59.3538 24.012C59.1458 23.764 58.8471 23.64 58.4578 23.64C58.0711 23.64 57.7725 23.764 57.5618 24.012C57.3538 24.2573 57.2498 24.6 57.2498 25.04C57.2498 25.48 57.3538 25.824 57.5618 26.072C57.7725 26.3173 58.0711 26.44 58.4578 26.44ZM62.2563 27.08C61.9096 27.08 61.6216 27.0387 61.3923 26.956C61.1656 26.8733 61.0056 26.8 60.9123 26.736L61.0003 26.04C61.0856 26.1147 61.2363 26.2 61.4523 26.296C61.6683 26.392 61.9256 26.44 62.2243 26.44C62.4776 26.44 62.6709 26.3973 62.8043 26.312C62.9402 26.2267 63.0082 26.1067 63.0082 25.952C63.0082 25.816 62.9643 25.7067 62.8763 25.624C62.7909 25.5387 62.6869 25.472 62.5643 25.424C62.4443 25.3733 62.3309 25.3333 62.2243 25.304C62.0456 25.256 61.8603 25.196 61.6683 25.124C61.4789 25.0493 61.3189 24.9387 61.1883 24.792C61.0576 24.6453 60.9923 24.44 60.9923 24.176C60.9923 23.976 61.0403 23.7867 61.1363 23.608C61.2323 23.4267 61.3883 23.28 61.6043 23.168C61.8203 23.056 62.1069 23 62.4643 23C62.7256 23 62.9376 23.028 63.1003 23.084C63.2656 23.1373 63.4083 23.1947 63.5283 23.256L63.4403 23.912C63.3256 23.816 63.1923 23.7347 63.0403 23.668C62.8883 23.6013 62.7016 23.568 62.4803 23.568C62.2563 23.568 62.0736 23.6107 61.9323 23.696C61.7909 23.7787 61.7203 23.912 61.7203 24.096C61.7203 24.28 61.7949 24.4107 61.9443 24.488C62.0963 24.5653 62.3256 24.6507 62.6323 24.744C62.7283 24.7707 62.8389 24.8093 62.9643 24.86C63.0923 24.9107 63.2163 24.9787 63.3363 25.064C63.4563 25.1493 63.5549 25.2613 63.6323 25.4C63.7123 25.536 63.7523 25.7067 63.7523 25.912C63.7523 26.0853 63.7109 26.2627 63.6283 26.444C63.5456 26.6227 63.3963 26.7733 63.1803 26.896C62.9643 27.0187 62.6563 27.08 62.2563 27.08Z" fill="#ECEEEF"/>
<path d="M15.3466 73V68.1H16.9636C17.2926 68.1 17.582 68.1525 17.8316 68.2575C18.0813 68.3625 18.275 68.5317 18.4126 68.765C18.5526 68.9983 18.6226 69.3063 18.6226 69.689C18.6226 70.0647 18.5526 70.3703 18.4126 70.606C18.275 70.8393 18.0813 71.0108 17.8316 71.1205C17.582 71.2302 17.2926 71.285 16.9636 71.285H16.0466V73H15.3466ZM16.0466 70.69H16.8656C17.2226 70.69 17.4898 70.6095 17.6671 70.4485C17.8468 70.2852 17.9366 70.0343 17.9366 69.696C17.9366 69.3553 17.8515 69.1033 17.6811 68.94C17.5131 68.7767 17.2413 68.695 16.8656 68.695H16.0466V70.69ZM19.9218 73.07C19.7094 73.07 19.5239 73.0268 19.3653 72.9405C19.2066 72.8542 19.0829 72.7363 18.9943 72.587C18.9079 72.4377 18.8648 72.2673 18.8648 72.076C18.8648 71.8823 18.9068 71.7167 18.9908 71.579C19.0771 71.439 19.1914 71.3235 19.3338 71.2325C19.4784 71.1392 19.6394 71.0657 19.8168 71.012C19.9941 70.956 20.1773 70.9163 20.3663 70.893C20.5576 70.8673 20.7408 70.8533 20.9158 70.851C20.9158 70.5243 20.8516 70.3108 20.7233 70.2105C20.5949 70.1102 20.4094 70.06 20.1668 70.06C20.0384 70.06 19.9008 70.0798 19.7538 70.1195C19.6091 70.1592 19.4458 70.242 19.2638 70.368L19.1728 69.857C19.3104 69.752 19.4819 69.6668 19.6873 69.6015C19.8926 69.5338 20.1084 69.5 20.3348 69.5C20.6241 69.5 20.8574 69.5513 21.0348 69.654C21.2121 69.7543 21.3416 69.9247 21.4233 70.165C21.5049 70.4053 21.5458 70.732 21.5458 71.145V71.845C21.5458 72.0083 21.5528 72.1437 21.5668 72.251C21.5831 72.356 21.6181 72.4353 21.6718 72.489C21.7278 72.5403 21.8164 72.566 21.9378 72.566H22.0008L21.9028 73.07H21.8538C21.6508 73.07 21.4933 73.0502 21.3813 73.0105C21.2716 72.9708 21.1876 72.9137 21.1293 72.839C21.0709 72.7643 21.0184 72.6733 20.9718 72.566C20.8434 72.7153 20.6918 72.8367 20.5168 72.93C20.3418 73.0233 20.1434 73.07 19.9218 73.07ZM20.0408 72.566C20.2088 72.566 20.3709 72.524 20.5273 72.44C20.6859 72.356 20.8154 72.244 20.9158 72.104V71.285C20.5821 71.2967 20.3114 71.3293 20.1038 71.383C19.8984 71.4367 19.7479 71.5172 19.6523 71.6245C19.5566 71.7318 19.5088 71.8707 19.5088 72.041C19.5088 72.2253 19.5578 72.3595 19.6558 72.4435C19.7561 72.5252 19.8844 72.566 20.0408 72.566ZM23.8731 74.75C23.5604 74.75 23.2804 74.7115 23.0331 74.6345C22.7881 74.5575 22.5944 74.4432 22.4521 74.2915C22.3121 74.1398 22.2421 73.952 22.2421 73.728C22.2421 73.5413 22.2946 73.3803 22.3996 73.245C22.5069 73.112 22.6527 73.0047 22.8371 72.923C22.7274 72.8693 22.6434 72.8063 22.5851 72.734C22.5291 72.6593 22.5011 72.5777 22.5011 72.489C22.5011 72.384 22.5326 72.2895 22.5956 72.2055C22.6609 72.1192 22.7647 72.048 22.9071 71.992C22.7157 71.873 22.5687 71.7132 22.4661 71.5125C22.3634 71.3095 22.3121 71.0843 22.3121 70.837C22.3121 70.5873 22.3681 70.3622 22.4801 70.1615C22.5921 69.9585 22.7531 69.7975 22.9631 69.6785C23.1754 69.5595 23.4297 69.5 23.7261 69.5C23.8847 69.5 24.0341 69.5233 24.1741 69.57C24.3164 69.6167 24.4471 69.682 24.5661 69.766C24.6711 69.7053 24.7947 69.6552 24.9371 69.6155C25.0817 69.5758 25.2427 69.556 25.4201 69.556C25.4317 69.556 25.4411 69.556 25.4481 69.556C25.4574 69.556 25.4667 69.556 25.4761 69.556L25.3991 69.976C25.3711 69.976 25.3442 69.976 25.3186 69.976C25.2929 69.976 25.2661 69.976 25.2381 69.976C25.2147 69.976 25.1611 69.9795 25.0771 69.9865C24.9931 69.9935 24.9161 70.0063 24.8461 70.025C24.9417 70.137 25.0152 70.263 25.0666 70.403C25.1202 70.5407 25.1471 70.6853 25.1471 70.837C25.1471 71.0983 25.0899 71.3328 24.9756 71.5405C24.8636 71.7458 24.7014 71.9092 24.4891 72.0305C24.2767 72.1495 24.0224 72.209 23.7261 72.209C23.6421 72.209 23.5616 72.2043 23.4846 72.195C23.4076 72.1833 23.3341 72.167 23.2641 72.146C23.1567 72.181 23.1031 72.2417 23.1031 72.328C23.1031 72.3793 23.1334 72.4248 23.1941 72.4645C23.2547 72.5018 23.3527 72.531 23.4881 72.552L24.4051 72.699C24.7761 72.7573 25.0619 72.8647 25.2626 73.021C25.4656 73.1773 25.5671 73.399 25.5671 73.686C25.5671 73.924 25.4971 74.1212 25.3571 74.2775C25.2194 74.4362 25.0234 74.554 24.7691 74.631C24.5147 74.7103 24.2161 74.75 23.8731 74.75ZM23.9291 74.19C24.2511 74.19 24.4984 74.148 24.6711 74.064C24.8437 73.9823 24.9301 73.861 24.9301 73.7C24.9301 73.574 24.8752 73.4748 24.7656 73.4025C24.6582 73.3302 24.5031 73.2753 24.3001 73.238L23.3236 73.0735C23.1952 73.1295 23.0832 73.2042 22.9876 73.2975C22.8919 73.3932 22.8441 73.504 22.8441 73.63C22.8441 73.826 22.9421 73.9683 23.1381 74.057C23.3364 74.1457 23.6001 74.19 23.9291 74.19ZM23.7261 71.705C23.9921 71.705 24.1951 71.6257 24.3351 71.467C24.4751 71.306 24.5451 71.0983 24.5451 70.844C24.5451 70.599 24.4751 70.3983 24.3351 70.242C24.1951 70.0833 23.9921 70.004 23.7261 70.004C23.4601 70.004 23.2582 70.0833 23.1206 70.242C22.9829 70.3983 22.9141 70.599 22.9141 70.844C22.9141 71.0983 22.9829 71.306 23.1206 71.467C23.2582 71.6257 23.4601 71.705 23.7261 71.705ZM26.7714 73.07C26.5591 73.07 26.3736 73.0268 26.2149 72.9405C26.0562 72.8542 25.9326 72.7363 25.8439 72.587C25.7576 72.4377 25.7144 72.2673 25.7144 72.076C25.7144 71.8823 25.7564 71.7167 25.8404 71.579C25.9267 71.439 26.0411 71.3235 26.1834 71.2325C26.3281 71.1392 26.4891 71.0657 26.6664 71.012C26.8437 70.956 27.0269 70.9163 27.2159 70.893C27.4072 70.8673 27.5904 70.8533 27.7654 70.851C27.7654 70.5243 27.7012 70.3108 27.5729 70.2105C27.4446 70.1102 27.2591 70.06 27.0164 70.06C26.8881 70.06 26.7504 70.0798 26.6034 70.1195C26.4587 70.1592 26.2954 70.242 26.1134 70.368L26.0224 69.857C26.1601 69.752 26.3316 69.6668 26.5369 69.6015C26.7422 69.5338 26.9581 69.5 27.1844 69.5C27.4737 69.5 27.7071 69.5513 27.8844 69.654C28.0617 69.7543 28.1912 69.9247 28.2729 70.165C28.3546 70.4053 28.3954 70.732 28.3954 71.145V71.845C28.3954 72.0083 28.4024 72.1437 28.4164 72.251C28.4327 72.356 28.4677 72.4353 28.5214 72.489C28.5774 72.5403 28.6661 72.566 28.7874 72.566H28.8504L28.7524 73.07H28.7034C28.5004 73.07 28.3429 73.0502 28.2309 73.0105C28.1212 72.9708 28.0372 72.9137 27.9789 72.839C27.9206 72.7643 27.8681 72.6733 27.8214 72.566C27.6931 72.7153 27.5414 72.8367 27.3664 72.93C27.1914 73.0233 26.9931 73.07 26.7714 73.07ZM26.8904 72.566C27.0584 72.566 27.2206 72.524 27.3769 72.44C27.5356 72.356 27.6651 72.244 27.7654 72.104V71.285C27.4317 71.2967 27.1611 71.3293 26.9534 71.383C26.7481 71.4367 26.5976 71.5172 26.5019 71.6245C26.4062 71.7318 26.3584 71.8707 26.3584 72.041C26.3584 72.2253 26.4074 72.3595 26.5054 72.4435C26.6057 72.5252 26.7341 72.566 26.8904 72.566ZM29.3367 73V69.57H29.8267L29.9527 70.228L29.7147 70.116C29.9293 69.885 30.1382 69.7252 30.3412 69.6365C30.5442 69.5455 30.7577 69.5 30.9817 69.5C31.1497 69.5 31.3107 69.528 31.4647 69.584C31.621 69.6377 31.761 69.7333 31.8847 69.871C32.0107 70.0063 32.111 70.1953 32.1857 70.438L32.0107 70.361C32.1133 70.095 32.2708 69.885 32.4832 69.731C32.6955 69.577 32.9813 69.5 33.3407 69.5C33.6277 69.5 33.8692 69.5537 34.0652 69.661C34.2612 69.766 34.4082 69.9282 34.5062 70.1475C34.6065 70.3645 34.6567 70.641 34.6567 70.977V73H34.0267V70.984C34.0267 70.662 33.9637 70.4275 33.8377 70.2805C33.7117 70.1335 33.5063 70.06 33.2217 70.06C33.021 70.06 32.86 70.0915 32.7387 70.1545C32.6173 70.2152 32.5252 70.2945 32.4622 70.3925C32.4015 70.4905 32.3607 70.5943 32.3397 70.704C32.321 70.8137 32.3117 70.9163 32.3117 71.012V73H31.6817V71.11C31.6817 70.83 31.6478 70.6142 31.5802 70.4625C31.5125 70.3108 31.418 70.2058 31.2967 70.1475C31.1753 70.0892 31.0353 70.06 30.8767 70.06C30.6457 70.06 30.4392 70.1113 30.2572 70.214C30.0752 70.3143 29.9527 70.4753 29.8897 70.697L29.9667 70.354V73H29.3367ZM37.1203 73.07C36.7167 73.07 36.3772 72.9872 36.1018 72.8215C35.8265 72.6558 35.6177 72.4365 35.4753 72.1635C35.3353 71.8882 35.2653 71.586 35.2653 71.257C35.2653 70.9373 35.3307 70.6445 35.4613 70.3785C35.5943 70.1125 35.7857 69.9002 36.0353 69.7415C36.2873 69.5805 36.5907 69.5 36.9453 69.5C37.23 69.5 37.4832 69.5572 37.7048 69.6715C37.9288 69.7835 38.1038 69.948 38.2298 70.165C38.3582 70.3797 38.4223 70.641 38.4223 70.949C38.4223 70.998 38.42 71.0517 38.4153 71.11C38.413 71.166 38.406 71.2243 38.3943 71.285H35.9093C35.9397 71.6023 36.0155 71.8497 36.1368 72.027C36.2582 72.2043 36.411 72.3292 36.5953 72.4015C36.7797 72.4738 36.9803 72.51 37.1973 72.51C37.356 72.51 37.5217 72.4937 37.6943 72.461C37.867 72.4283 38.0303 72.377 38.1843 72.307L38.2683 72.804C38.1353 72.8623 37.9732 72.9218 37.7818 72.9825C37.5905 73.0408 37.37 73.07 37.1203 73.07ZM35.9653 70.851H37.7713C37.7713 70.69 37.741 70.55 37.6803 70.431C37.6197 70.312 37.5275 70.221 37.4038 70.158C37.2802 70.0927 37.1227 70.06 36.9313 70.06C36.6513 70.06 36.4355 70.13 36.2838 70.27C36.1345 70.4077 36.0283 70.6013 35.9653 70.851ZM39.0574 73V69.57H39.5474L39.6734 70.228L39.4284 70.123C39.6594 69.8663 39.8845 69.6983 40.1039 69.619C40.3255 69.5397 40.5414 69.5 40.7514 69.5C41.253 69.5 41.6112 69.6447 41.8259 69.934C42.0429 70.2233 42.1514 70.6153 42.1514 71.11V73H41.5214V71.11C41.5214 70.746 41.4537 70.48 41.3184 70.312C41.183 70.144 40.952 70.06 40.6254 70.06C40.3944 70.06 40.182 70.1113 39.9884 70.214C39.797 70.3143 39.671 70.4753 39.6104 70.697L39.6874 70.312V73H39.0574ZM44.0958 73.07C43.8788 73.07 43.705 73.0303 43.5743 72.951C43.4437 72.8717 43.348 72.7702 43.2873 72.6465C43.229 72.5205 43.1998 72.3887 43.1998 72.251V70.06H42.6118L42.6678 69.57H43.1998V68.723L43.8298 68.66V69.57H44.7328V70.06H43.8298V71.866C43.8298 72.0853 43.8427 72.244 43.8683 72.342C43.894 72.44 43.957 72.5018 44.0573 72.5275C44.16 72.5532 44.3245 72.566 44.5508 72.566H44.7118L44.6628 73.07H44.0958ZM46.7419 73.07C46.3826 73.07 46.0757 72.9907 45.8214 72.832C45.5694 72.671 45.3757 72.4563 45.2404 72.188C45.1074 71.9173 45.0409 71.6163 45.0409 71.285C45.0409 70.9537 45.1074 70.6538 45.2404 70.3855C45.3757 70.1148 45.5694 69.9002 45.8214 69.7415C46.0757 69.5805 46.3826 69.5 46.7419 69.5C47.0989 69.5 47.4046 69.5805 47.6589 69.7415C47.9132 69.9002 48.1069 70.1148 48.2399 70.3855C48.3752 70.6538 48.4429 70.9537 48.4429 71.285C48.4429 71.6163 48.3752 71.9173 48.2399 72.188C48.1069 72.4563 47.9132 72.671 47.6589 72.832C47.4046 72.9907 47.0989 73.07 46.7419 73.07ZM46.7419 72.51C47.0826 72.51 47.3439 72.4027 47.5259 72.188C47.7079 71.971 47.7989 71.67 47.7989 71.285C47.7989 70.9 47.7079 70.6002 47.5259 70.3855C47.3439 70.1685 47.0826 70.06 46.7419 70.06C46.4036 70.06 46.1422 70.1685 45.9579 70.3855C45.7759 70.6002 45.6849 70.9 45.6849 71.285C45.6849 71.67 45.7759 71.971 45.9579 72.188C46.1422 72.4027 46.4036 72.51 46.7419 72.51ZM52.0228 73.07C51.7311 73.07 51.4675 72.9907 51.2318 72.832C50.9961 72.6733 50.8083 72.4598 50.6683 72.1915C50.5306 71.9232 50.4618 71.6233 50.4618 71.292C50.4618 70.977 50.5248 70.683 50.6508 70.41C50.7791 70.137 50.96 69.9177 51.1933 69.752C51.4266 69.584 51.7031 69.5 52.0228 69.5C52.2515 69.5 52.472 69.5502 52.6843 69.6505C52.899 69.7485 53.0728 69.913 53.2058 70.144L53.0728 70.235V67.75H53.7028V73H53.1428L53.0238 72.272L53.1848 72.384C53.0845 72.6103 52.927 72.7818 52.7123 72.8985C52.4976 73.0128 52.2678 73.07 52.0228 73.07ZM52.1348 72.51C52.2935 72.51 52.4498 72.4692 52.6038 72.3875C52.7601 72.3058 52.8885 72.1763 52.9888 71.999C53.0915 71.8193 53.1428 71.5837 53.1428 71.292C53.1428 71.0213 53.0915 70.795 52.9888 70.613C52.8885 70.4287 52.7601 70.291 52.6038 70.2C52.4498 70.1067 52.2935 70.06 52.1348 70.06C51.9201 70.06 51.7358 70.1137 51.5818 70.221C51.4278 70.3283 51.31 70.4753 51.2283 70.662C51.1466 70.8463 51.1058 71.0563 51.1058 71.292C51.1058 71.5137 51.1466 71.7167 51.2283 71.901C51.31 72.0853 51.4278 72.2335 51.5818 72.3455C51.7358 72.4552 51.9201 72.51 52.1348 72.51ZM56.1926 73.07C55.7889 73.07 55.4494 72.9872 55.1741 72.8215C54.8988 72.6558 54.6899 72.4365 54.5476 72.1635C54.4076 71.8882 54.3376 71.586 54.3376 71.257C54.3376 70.9373 54.4029 70.6445 54.5336 70.3785C54.6666 70.1125 54.8579 69.9002 55.1076 69.7415C55.3596 69.5805 55.6629 69.5 56.0176 69.5C56.3023 69.5 56.5554 69.5572 56.7771 69.6715C57.0011 69.7835 57.1761 69.948 57.3021 70.165C57.4304 70.3797 57.4946 70.641 57.4946 70.949C57.4946 70.998 57.4923 71.0517 57.4876 71.11C57.4853 71.166 57.4783 71.2243 57.4666 71.285H54.9816C55.0119 71.6023 55.0878 71.8497 55.2091 72.027C55.3304 72.2043 55.4833 72.3292 55.6676 72.4015C55.8519 72.4738 56.0526 72.51 56.2696 72.51C56.4283 72.51 56.5939 72.4937 56.7666 72.461C56.9393 72.4283 57.1026 72.377 57.2566 72.307L57.3406 72.804C57.2076 72.8623 57.0454 72.9218 56.8541 72.9825C56.6628 73.0408 56.4423 73.07 56.1926 73.07ZM55.0376 70.851H56.8436C56.8436 70.69 56.8133 70.55 56.7526 70.431C56.6919 70.312 56.5998 70.221 56.4761 70.158C56.3524 70.0927 56.1949 70.06 56.0036 70.06C55.7236 70.06 55.5078 70.13 55.3561 70.27C55.2068 70.4077 55.1006 70.6013 55.0376 70.851ZM59.0473 73L57.7383 69.57H58.4383L59.3973 72.307L60.3493 69.57H61.0563L59.7543 73H59.0473ZM63.1311 73.07C62.7274 73.07 62.3879 72.9872 62.1126 72.8215C61.8372 72.6558 61.6284 72.4365 61.4861 72.1635C61.3461 71.8882 61.2761 71.586 61.2761 71.257C61.2761 70.9373 61.3414 70.6445 61.4721 70.3785C61.6051 70.1125 61.7964 69.9002 62.0461 69.7415C62.2981 69.5805 62.6014 69.5 62.9561 69.5C63.2407 69.5 63.4939 69.5572 63.7156 69.6715C63.9396 69.7835 64.1146 69.948 64.2406 70.165C64.3689 70.3797 64.4331 70.641 64.4331 70.949C64.4331 70.998 64.4307 71.0517 64.4261 71.11C64.4237 71.166 64.4167 71.2243 64.4051 71.285H61.9201C61.9504 71.6023 62.0262 71.8497 62.1476 72.027C62.2689 72.2043 62.4217 72.3292 62.6061 72.4015C62.7904 72.4738 62.9911 72.51 63.2081 72.51C63.3667 72.51 63.5324 72.4937 63.7051 72.461C63.8777 72.4283 64.0411 72.377 64.1951 72.307L64.2791 72.804C64.1461 72.8623 63.9839 72.9218 63.7926 72.9825C63.6012 73.0408 63.3807 73.07 63.1311 73.07ZM61.9761 70.851H63.7821C63.7821 70.69 63.7517 70.55 63.6911 70.431C63.6304 70.312 63.5382 70.221 63.4146 70.158C63.2909 70.0927 63.1334 70.06 62.9421 70.06C62.6621 70.06 62.4462 70.13 62.2946 70.27C62.1452 70.4077 62.0391 70.6013 61.9761 70.851ZM65.0681 73V69.57H65.5861L65.6631 70.137C65.8381 69.92 66.0049 69.7602 66.1636 69.6575C66.3246 69.5525 66.4961 69.5 66.6781 69.5C66.7364 69.5 66.7901 69.507 66.8391 69.521L66.7761 70.214C66.7458 70.207 66.7131 70.2023 66.6781 70.2C66.6454 70.1953 66.6081 70.193 66.5661 70.193C66.3841 70.193 66.2161 70.2338 66.0621 70.3155C65.9104 70.3948 65.8031 70.4823 65.7401 70.578V73H65.0681ZM68.0331 73.07C67.8208 73.07 67.6353 73.0268 67.4766 72.9405C67.3179 72.8542 67.1943 72.7363 67.1056 72.587C67.0193 72.4377 66.9761 72.2673 66.9761 72.076C66.9761 71.8823 67.0181 71.7167 67.1021 71.579C67.1884 71.439 67.3028 71.3235 67.4451 71.2325C67.5898 71.1392 67.7508 71.0657 67.9281 71.012C68.1054 70.956 68.2886 70.9163 68.4776 70.893C68.6689 70.8673 68.8521 70.8533 69.0271 70.851C69.0271 70.5243 68.9629 70.3108 68.8346 70.2105C68.7063 70.1102 68.5208 70.06 68.2781 70.06C68.1498 70.06 68.0121 70.0798 67.8651 70.1195C67.7204 70.1592 67.5571 70.242 67.3751 70.368L67.2841 69.857C67.4218 69.752 67.5933 69.6668 67.7986 69.6015C68.0039 69.5338 68.2198 69.5 68.4461 69.5C68.7354 69.5 68.9688 69.5513 69.1461 69.654C69.3234 69.7543 69.4529 69.9247 69.5346 70.165C69.6163 70.4053 69.6571 70.732 69.6571 71.145V71.845C69.6571 72.0083 69.6641 72.1437 69.6781 72.251C69.6944 72.356 69.7294 72.4353 69.7831 72.489C69.8391 72.5403 69.9278 72.566 70.0491 72.566H70.1121L70.0141 73.07H69.9651C69.7621 73.07 69.6046 73.0502 69.4926 73.0105C69.3829 72.9708 69.2989 72.9137 69.2406 72.839C69.1823 72.7643 69.1298 72.6733 69.0831 72.566C68.9548 72.7153 68.8031 72.8367 68.6281 72.93C68.4531 73.0233 68.2548 73.07 68.0331 73.07ZM68.1521 72.566C68.3201 72.566 68.4823 72.524 68.6386 72.44C68.7973 72.356 68.9268 72.244 69.0271 72.104V71.285C68.6934 71.2967 68.4228 71.3293 68.2151 71.383C68.0098 71.4367 67.8593 71.5172 67.7636 71.6245C67.6679 71.7318 67.6201 71.8707 67.6201 72.041C67.6201 72.2253 67.6691 72.3595 67.7671 72.4435C67.8674 72.5252 67.9958 72.566 68.1521 72.566ZM67.7951 68.968V68.541L69.1041 67.771V68.457L67.7951 68.968ZM73.1437 73.07C72.8403 73.07 72.5883 73.0338 72.3877 72.9615C72.1893 72.8892 72.0493 72.825 71.9677 72.769L72.0447 72.16C72.1193 72.2253 72.2512 72.3 72.4402 72.384C72.6292 72.468 72.8543 72.51 73.1157 72.51C73.3373 72.51 73.5065 72.4727 73.6232 72.398C73.7422 72.3233 73.8017 72.2183 73.8017 72.083C73.8017 71.964 73.7632 71.8683 73.6862 71.796C73.6115 71.7213 73.5205 71.663 73.4132 71.621C73.3082 71.5767 73.209 71.5417 73.1157 71.516C72.9593 71.474 72.7972 71.4215 72.6292 71.3585C72.4635 71.2932 72.3235 71.1963 72.2092 71.068C72.0948 70.9397 72.0377 70.76 72.0377 70.529C72.0377 70.354 72.0797 70.1883 72.1637 70.032C72.2477 69.8733 72.3842 69.745 72.5732 69.647C72.7622 69.549 73.013 69.5 73.3257 69.5C73.5543 69.5 73.7398 69.5245 73.8822 69.5735C74.0268 69.6202 74.1517 69.6703 74.2567 69.724L74.1797 70.298C74.0793 70.214 73.9627 70.1428 73.8297 70.0845C73.6967 70.0262 73.5333 69.997 73.3397 69.997C73.1437 69.997 72.9838 70.0343 72.8602 70.109C72.7365 70.1813 72.6747 70.298 72.6747 70.459C72.6747 70.62 72.74 70.7343 72.8707 70.802C73.0037 70.8697 73.2043 70.9443 73.4727 71.026C73.5567 71.0493 73.6535 71.0832 73.7632 71.1275C73.8752 71.1718 73.9837 71.2313 74.0887 71.306C74.1937 71.3807 74.28 71.4787 74.3477 71.6C74.4177 71.719 74.4527 71.8683 74.4527 72.048C74.4527 72.1997 74.4165 72.3548 74.3442 72.5135C74.2718 72.6698 74.1412 72.8017 73.9522 72.909C73.7632 73.0163 73.4937 73.07 73.1437 73.07ZM76.7141 73.07C76.3104 73.07 75.9709 72.9872 75.6956 72.8215C75.4203 72.6558 75.2114 72.4365 75.0691 72.1635C74.9291 71.8882 74.8591 71.586 74.8591 71.257C74.8591 70.9373 74.9244 70.6445 75.0551 70.3785C75.1881 70.1125 75.3794 69.9002 75.6291 69.7415C75.8811 69.5805 76.1844 69.5 76.5391 69.5C76.8238 69.5 77.0769 69.5572 77.2986 69.6715C77.5226 69.7835 77.6976 69.948 77.8236 70.165C77.9519 70.3797 78.0161 70.641 78.0161 70.949C78.0161 70.998 78.0138 71.0517 78.0091 71.11C78.0068 71.166 77.9998 71.2243 77.9881 71.285H75.5031C75.5334 71.6023 75.6093 71.8497 75.7306 72.027C75.8519 72.2043 76.0048 72.3292 76.1891 72.4015C76.3734 72.4738 76.5741 72.51 76.7911 72.51C76.9498 72.51 77.1154 72.4937 77.2881 72.461C77.4608 72.4283 77.6241 72.377 77.7781 72.307L77.8621 72.804C77.7291 72.8623 77.5669 72.9218 77.3756 72.9825C77.1843 73.0408 76.9638 73.07 76.7141 73.07ZM75.5591 70.851H77.3651C77.3651 70.69 77.3348 70.55 77.2741 70.431C77.2134 70.312 77.1213 70.221 76.9976 70.158C76.8739 70.0927 76.7164 70.06 76.5251 70.06C76.2451 70.06 76.0293 70.13 75.8776 70.27C75.7283 70.4077 75.6221 70.6013 75.5591 70.851ZM78.6511 73V69.57H79.1691L79.2461 70.137C79.4211 69.92 79.588 69.7602 79.7466 69.6575C79.9076 69.5525 80.0791 69.5 80.2611 69.5C80.3195 69.5 80.3731 69.507 80.4221 69.521L80.3591 70.214C80.3288 70.207 80.2961 70.2023 80.2611 70.2C80.2285 70.1953 80.1911 70.193 80.1491 70.193C79.9671 70.193 79.7991 70.2338 79.6451 70.3155C79.4935 70.3948 79.3861 70.4823 79.3231 70.578V73H78.6511ZM82.4382 73V69.57H82.9562L83.0332 70.137C83.2082 69.92 83.3751 69.7602 83.5337 69.6575C83.6947 69.5525 83.8662 69.5 84.0482 69.5C84.1066 69.5 84.1602 69.507 84.2092 69.521L84.1462 70.214C84.1159 70.207 84.0832 70.2023 84.0482 70.2C84.0156 70.1953 83.9782 70.193 83.9362 70.193C83.7542 70.193 83.5862 70.2338 83.4322 70.3155C83.2806 70.3948 83.1732 70.4823 83.1102 70.578V73H82.4382ZM86.2092 73.07C85.8055 73.07 85.466 72.9872 85.1907 72.8215C84.9154 72.6558 84.7065 72.4365 84.5642 72.1635C84.4242 71.8882 84.3542 71.586 84.3542 71.257C84.3542 70.9373 84.4195 70.6445 84.5502 70.3785C84.6832 70.1125 84.8745 69.9002 85.1242 69.7415C85.3762 69.5805 85.6795 69.5 86.0342 69.5C86.3189 69.5 86.572 69.5572 86.7937 69.6715C87.0177 69.7835 87.1927 69.948 87.3187 70.165C87.447 70.3797 87.5112 70.641 87.5112 70.949C87.5112 70.998 87.5089 71.0517 87.5042 71.11C87.5019 71.166 87.4949 71.2243 87.4832 71.285H84.9982C85.0285 71.6023 85.1044 71.8497 85.2257 72.027C85.347 72.2043 85.4999 72.3292 85.6842 72.4015C85.8685 72.4738 86.0692 72.51 86.2862 72.51C86.4449 72.51 86.6105 72.4937 86.7832 72.461C86.9559 72.4283 87.1192 72.377 87.2732 72.307L87.3572 72.804C87.2242 72.8623 87.062 72.9218 86.8707 72.9825C86.6794 73.0408 86.4589 73.07 86.2092 73.07ZM85.0542 70.851H86.8602C86.8602 70.69 86.8299 70.55 86.7692 70.431C86.7085 70.312 86.6164 70.221 86.4927 70.158C86.369 70.0927 86.2115 70.06 86.0202 70.06C85.7402 70.06 85.5244 70.13 85.3727 70.27C85.2234 70.4077 85.1172 70.6013 85.0542 70.851ZM88.9442 73.07C88.7319 73.07 88.5464 73.0268 88.3877 72.9405C88.2291 72.8542 88.1054 72.7363 88.0167 72.587C87.9304 72.4377 87.8872 72.2673 87.8872 72.076C87.8872 71.8823 87.9292 71.7167 88.0132 71.579C88.0996 71.439 88.2139 71.3235 88.3562 71.2325C88.5009 71.1392 88.6619 71.0657 88.8392 71.012C89.0166 70.956 89.1997 70.9163 89.3887 70.893C89.5801 70.8673 89.7632 70.8533 89.9382 70.851C89.9382 70.5243 89.8741 70.3108 89.7457 70.2105C89.6174 70.1102 89.4319 70.06 89.1892 70.06C89.0609 70.06 88.9232 70.0798 88.7762 70.1195C88.6316 70.1592 88.4682 70.242 88.2862 70.368L88.1952 69.857C88.3329 69.752 88.5044 69.6668 88.7097 69.6015C88.9151 69.5338 89.1309 69.5 89.3572 69.5C89.6466 69.5 89.8799 69.5513 90.0572 69.654C90.2346 69.7543 90.3641 69.9247 90.4457 70.165C90.5274 70.4053 90.5682 70.732 90.5682 71.145V71.845C90.5682 72.0083 90.5752 72.1437 90.5892 72.251C90.6056 72.356 90.6406 72.4353 90.6942 72.489C90.7502 72.5403 90.8389 72.566 90.9602 72.566H91.0232L90.9252 73.07H90.8762C90.6732 73.07 90.5157 73.0502 90.4037 73.0105C90.2941 72.9708 90.2101 72.9137 90.1517 72.839C90.0934 72.7643 90.0409 72.6733 89.9942 72.566C89.8659 72.7153 89.7142 72.8367 89.5392 72.93C89.3642 73.0233 89.1659 73.07 88.9442 73.07ZM89.0632 72.566C89.2312 72.566 89.3934 72.524 89.5497 72.44C89.7084 72.356 89.8379 72.244 89.9382 72.104V71.285C89.6046 71.2967 89.3339 71.3293 89.1262 71.383C88.9209 71.4367 88.7704 71.5172 88.6747 71.6245C88.5791 71.7318 88.5312 71.8707 88.5312 72.041C88.5312 72.2253 88.5802 72.3595 88.6782 72.4435C88.7786 72.5252 88.9069 72.566 89.0632 72.566ZM92.3915 73.07C92.1699 73.07 91.9937 73.0303 91.863 72.951C91.7347 72.8693 91.6425 72.7655 91.5865 72.6395C91.5305 72.5135 91.5025 72.3817 91.5025 72.244V67.75H92.1325V71.88C92.1325 72.076 92.1454 72.223 92.171 72.321C92.1967 72.419 92.248 72.4843 92.325 72.517C92.4044 72.5497 92.5245 72.566 92.6855 72.566L92.5945 73.07H92.3915ZM93.1638 73V69.57H93.7938V73H93.1638ZM93.1638 68.8V68.1H93.7938V68.8H93.1638ZM94.3742 73L96.4952 69.808L96.5722 70.123H94.4862V69.57H97.3422L95.2212 72.762L95.1442 72.447H97.3072V73H94.3742ZM98.7401 73.07C98.5278 73.07 98.3423 73.0268 98.1836 72.9405C98.025 72.8542 97.9013 72.7363 97.8126 72.587C97.7263 72.4377 97.6831 72.2673 97.6831 72.076C97.6831 71.8823 97.7251 71.7167 97.8091 71.579C97.8955 71.439 98.0098 71.3235 98.1521 71.2325C98.2968 71.1392 98.4578 71.0657 98.6351 71.012C98.8125 70.956 98.9956 70.9163 99.1846 70.893C99.376 70.8673 99.5591 70.8533 99.7341 70.851C99.7341 70.5243 99.67 70.3108 99.5416 70.2105C99.4133 70.1102 99.2278 70.06 98.9851 70.06C98.8568 70.06 98.7191 70.0798 98.5721 70.1195C98.4275 70.1592 98.2641 70.242 98.0821 70.368L97.9911 69.857C98.1288 69.752 98.3003 69.6668 98.5056 69.6015C98.711 69.5338 98.9268 69.5 99.1531 69.5C99.4425 69.5 99.6758 69.5513 99.8531 69.654C100.03 69.7543 100.16 69.9247 100.242 70.165C100.323 70.4053 100.364 70.732 100.364 71.145V71.845C100.364 72.0083 100.371 72.1437 100.385 72.251C100.401 72.356 100.436 72.4353 100.49 72.489C100.546 72.5403 100.635 72.566 100.756 72.566H100.819L100.721 73.07H100.672C100.469 73.07 100.312 73.0502 100.2 73.0105C100.09 72.9708 100.006 72.9137 99.9476 72.839C99.8893 72.7643 99.8368 72.6733 99.7901 72.566C99.6618 72.7153 99.5101 72.8367 99.3351 72.93C99.1601 73.0233 98.9618 73.07 98.7401 73.07ZM98.8591 72.566C99.0271 72.566 99.1893 72.524 99.3456 72.44C99.5043 72.356 99.6338 72.244 99.7341 72.104V71.285C99.4005 71.2967 99.1298 71.3293 98.9221 71.383C98.7168 71.4367 98.5663 71.5172 98.4706 71.6245C98.375 71.7318 98.3271 71.8707 98.3271 72.041C98.3271 72.2253 98.3761 72.3595 98.4741 72.4435C98.5745 72.5252 98.7028 72.566 98.8591 72.566ZM102.663 73.07C102.372 73.07 102.108 72.9907 101.872 72.832C101.637 72.6733 101.449 72.4598 101.309 72.1915C101.171 71.9232 101.102 71.6233 101.102 71.292C101.102 70.977 101.165 70.683 101.291 70.41C101.42 70.137 101.601 69.9177 101.834 69.752C102.067 69.584 102.344 69.5 102.663 69.5C102.892 69.5 103.113 69.5502 103.325 69.6505C103.54 69.7485 103.713 69.913 103.846 70.144L103.713 70.235V67.75H104.343V73H103.783L103.664 72.272L103.825 72.384C103.725 72.6103 103.568 72.7818 103.353 72.8985C103.138 73.0128 102.908 73.07 102.663 73.07ZM102.775 72.51C102.934 72.51 103.09 72.4692 103.244 72.3875C103.401 72.3058 103.529 72.1763 103.629 71.999C103.732 71.8193 103.783 71.5837 103.783 71.292C103.783 71.0213 103.732 70.795 103.629 70.613C103.529 70.4287 103.401 70.291 103.244 70.2C103.09 70.1067 102.934 70.06 102.775 70.06C102.561 70.06 102.376 70.1137 102.222 70.221C102.068 70.3283 101.951 70.4753 101.869 70.662C101.787 70.8463 101.746 71.0563 101.746 71.292C101.746 71.5137 101.787 71.7167 101.869 71.901C101.951 72.0853 102.068 72.2335 102.222 72.3455C102.376 72.4552 102.561 72.51 102.775 72.51ZM106.686 73.07C106.327 73.07 106.02 72.9907 105.766 72.832C105.514 72.671 105.32 72.4563 105.185 72.188C105.052 71.9173 104.985 71.6163 104.985 71.285C104.985 70.9537 105.052 70.6538 105.185 70.3855C105.32 70.1148 105.514 69.9002 105.766 69.7415C106.02 69.5805 106.327 69.5 106.686 69.5C107.043 69.5 107.349 69.5805 107.603 69.7415C107.858 69.9002 108.051 70.1148 108.184 70.3855C108.32 70.6538 108.387 70.9537 108.387 71.285C108.387 71.6163 108.32 71.9173 108.184 72.188C108.051 72.4563 107.858 72.671 107.603 72.832C107.349 72.9907 107.043 73.07 106.686 73.07ZM106.686 72.51C107.027 72.51 107.288 72.4027 107.47 72.188C107.652 71.971 107.743 71.67 107.743 71.285C107.743 70.9 107.652 70.6002 107.47 70.3855C107.288 70.1685 107.027 70.06 106.686 70.06C106.348 70.06 106.087 70.1685 105.902 70.3855C105.72 70.6002 105.629 70.9 105.629 71.285C105.629 71.67 105.72 71.971 105.902 72.188C106.087 72.4027 106.348 72.51 106.686 72.51ZM111.407 73.07C111.195 73.07 111.009 73.0268 110.851 72.9405C110.692 72.8542 110.568 72.7363 110.48 72.587C110.393 72.4377 110.35 72.2673 110.35 72.076C110.35 71.8823 110.392 71.7167 110.476 71.579C110.562 71.439 110.677 71.3235 110.819 71.2325C110.964 71.1392 111.125 71.0657 111.302 71.012C111.479 70.956 111.663 70.9163 111.852 70.893C112.043 70.8673 112.226 70.8533 112.401 70.851C112.401 70.5243 112.337 70.3108 112.209 70.2105C112.08 70.1102 111.895 70.06 111.652 70.06C111.524 70.06 111.386 70.0798 111.239 70.1195C111.094 70.1592 110.931 70.242 110.749 70.368L110.658 69.857C110.796 69.752 110.967 69.6668 111.173 69.6015C111.378 69.5338 111.594 69.5 111.82 69.5C112.109 69.5 112.343 69.5513 112.52 69.654C112.697 69.7543 112.827 69.9247 112.909 70.165C112.99 70.4053 113.031 70.732 113.031 71.145V71.845C113.031 72.0083 113.038 72.1437 113.052 72.251C113.068 72.356 113.103 72.4353 113.157 72.489C113.213 72.5403 113.302 72.566 113.423 72.566H113.486L113.388 73.07H113.339C113.136 73.07 112.979 73.0502 112.867 73.0105C112.757 72.9708 112.673 72.9137 112.615 72.839C112.556 72.7643 112.504 72.6733 112.457 72.566C112.329 72.7153 112.177 72.8367 112.002 72.93C111.827 73.0233 111.629 73.07 111.407 73.07ZM111.526 72.566C111.694 72.566 111.856 72.524 112.013 72.44C112.171 72.356 112.301 72.244 112.401 72.104V71.285C112.067 71.2967 111.797 71.3293 111.589 71.383C111.384 71.4367 111.233 71.5172 111.138 71.6245C111.042 71.7318 110.994 71.8707 110.994 72.041C110.994 72.2253 111.043 72.3595 111.141 72.4435C111.241 72.5252 111.37 72.566 111.526 72.566ZM115.087 73.07C114.87 73.07 114.696 73.0303 114.566 72.951C114.435 72.8717 114.339 72.7702 114.279 72.6465C114.22 72.5205 114.191 72.3887 114.191 72.251V70.06H113.603L113.659 69.57H114.191V68.723L114.821 68.66V69.57H115.724V70.06H114.821V71.866C114.821 72.0853 114.834 72.244 114.86 72.342C114.885 72.44 114.948 72.5018 115.049 72.5275C115.151 72.5532 115.316 72.566 115.542 72.566H115.703L115.654 73.07H115.087ZM117.88 73.07C117.476 73.07 117.137 72.9872 116.862 72.8215C116.586 72.6558 116.377 72.4365 116.235 72.1635C116.095 71.8882 116.025 71.586 116.025 71.257C116.025 70.9373 116.09 70.6445 116.221 70.3785C116.354 70.1125 116.545 69.9002 116.795 69.7415C117.047 69.5805 117.35 69.5 117.705 69.5C117.99 69.5 118.243 69.5572 118.465 69.6715C118.689 69.7835 118.864 69.948 118.99 70.165C119.118 70.3797 119.182 70.641 119.182 70.949C119.182 70.998 119.18 71.0517 119.175 71.11C119.173 71.166 119.166 71.2243 119.154 71.285H116.669C116.699 71.6023 116.775 71.8497 116.897 72.027C117.018 72.2043 117.171 72.3292 117.355 72.4015C117.539 72.4738 117.74 72.51 117.957 72.51C118.116 72.51 118.281 72.4937 118.454 72.461C118.627 72.4283 118.79 72.377 118.944 72.307L119.028 72.804C118.895 72.8623 118.733 72.9218 118.542 72.9825C118.35 73.0408 118.13 73.07 117.88 73.07ZM116.725 70.851H118.531C118.531 70.69 118.501 70.55 118.44 70.431C118.379 70.312 118.287 70.221 118.164 70.158C118.04 70.0927 117.882 70.06 117.691 70.06C117.411 70.06 117.195 70.13 117.044 70.27C116.894 70.4077 116.788 70.6013 116.725 70.851ZM117.103 68.968V68.541L118.412 67.771V68.457L117.103 68.968ZM122.187 73.07C121.975 73.07 121.79 73.0268 121.631 72.9405C121.472 72.8542 121.349 72.7363 121.26 72.587C121.174 72.4377 121.13 72.2673 121.13 72.076C121.13 71.8823 121.172 71.7167 121.256 71.579C121.343 71.439 121.457 71.3235 121.599 71.2325C121.744 71.1392 121.905 71.0657 122.082 71.012C122.26 70.956 122.443 70.9163 122.632 70.893C122.823 70.8673 123.006 70.8533 123.181 70.851C123.181 70.5243 123.117 70.3108 122.989 70.2105C122.861 70.1102 122.675 70.06 122.432 70.06C122.304 70.06 122.166 70.0798 122.019 70.1195C121.875 70.1592 121.711 70.242 121.529 70.368L121.438 69.857C121.576 69.752 121.748 69.6668 121.953 69.6015C122.158 69.5338 122.374 69.5 122.6 69.5C122.89 69.5 123.123 69.5513 123.3 69.654C123.478 69.7543 123.607 69.9247 123.689 70.165C123.771 70.4053 123.811 70.732 123.811 71.145V71.845C123.811 72.0083 123.818 72.1437 123.832 72.251C123.849 72.356 123.884 72.4353 123.937 72.489C123.993 72.5403 124.082 72.566 124.203 72.566H124.266L124.168 73.07H124.119C123.916 73.07 123.759 73.0502 123.647 73.0105C123.537 72.9708 123.453 72.9137 123.395 72.839C123.337 72.7643 123.284 72.6733 123.237 72.566C123.109 72.7153 122.957 72.8367 122.782 72.93C122.607 73.0233 122.409 73.07 122.187 73.07ZM122.306 72.566C122.474 72.566 122.637 72.524 122.793 72.44C122.952 72.356 123.081 72.244 123.181 72.104V71.285C122.848 71.2967 122.577 71.3293 122.369 71.383C122.164 71.4367 122.014 71.5172 121.918 71.6245C121.822 71.7318 121.774 71.8707 121.774 72.041C121.774 72.2253 121.823 72.3595 121.921 72.4435C122.022 72.5252 122.15 72.566 122.306 72.566ZM127.683 73.07C127.391 73.07 127.128 72.9907 126.892 72.832C126.656 72.6733 126.468 72.4598 126.328 72.1915C126.191 71.9232 126.122 71.6233 126.122 71.292C126.122 70.977 126.185 70.683 126.311 70.41C126.439 70.137 126.62 69.9177 126.853 69.752C127.087 69.584 127.363 69.5 127.683 69.5C127.912 69.5 128.132 69.5502 128.344 69.6505C128.559 69.7485 128.733 69.913 128.866 70.144L128.733 70.235V67.75H129.363V73H128.803L128.684 72.272L128.845 72.384C128.745 72.6103 128.587 72.7818 128.372 72.8985C128.158 73.0128 127.928 73.07 127.683 73.07ZM127.795 72.51C127.954 72.51 128.11 72.4692 128.264 72.3875C128.42 72.3058 128.549 72.1763 128.649 71.999C128.752 71.8193 128.803 71.5837 128.803 71.292C128.803 71.0213 128.752 70.795 128.649 70.613C128.549 70.4287 128.42 70.291 128.264 70.2C128.11 70.1067 127.954 70.06 127.795 70.06C127.58 70.06 127.396 70.1137 127.242 70.221C127.088 70.3283 126.97 70.4753 126.888 70.662C126.807 70.8463 126.766 71.0563 126.766 71.292C126.766 71.5137 126.807 71.7167 126.888 71.901C126.97 72.0853 127.088 72.2335 127.242 72.3455C127.396 72.4552 127.58 72.51 127.795 72.51ZM131.006 73.07C130.793 73.07 130.608 73.0268 130.449 72.9405C130.291 72.8542 130.167 72.7363 130.078 72.587C129.992 72.4377 129.949 72.2673 129.949 72.076C129.949 71.8823 129.991 71.7167 130.075 71.579C130.161 71.439 130.275 71.3235 130.418 71.2325C130.562 71.1392 130.723 71.0657 130.901 71.012C131.078 70.956 131.261 70.9163 131.45 70.893C131.642 70.8673 131.825 70.8533 132 70.851C132 70.5243 131.936 70.3108 131.807 70.2105C131.679 70.1102 131.493 70.06 131.251 70.06C131.122 70.06 130.985 70.0798 130.838 70.1195C130.693 70.1592 130.53 70.242 130.348 70.368L130.257 69.857C130.394 69.752 130.566 69.6668 130.771 69.6015C130.977 69.5338 131.192 69.5 131.419 69.5C131.708 69.5 131.941 69.5513 132.119 69.654C132.296 69.7543 132.426 69.9247 132.507 70.165C132.589 70.4053 132.63 70.732 132.63 71.145V71.845C132.63 72.0083 132.637 72.1437 132.651 72.251C132.667 72.356 132.702 72.4353 132.756 72.489C132.812 72.5403 132.9 72.566 133.022 72.566H133.085L132.987 73.07H132.938C132.735 73.07 132.577 73.0502 132.465 73.0105C132.356 72.9708 132.272 72.9137 132.213 72.839C132.155 72.7643 132.102 72.6733 132.056 72.566C131.927 72.7153 131.776 72.8367 131.601 72.93C131.426 73.0233 131.227 73.07 131.006 73.07ZM131.125 72.566C131.293 72.566 131.455 72.524 131.611 72.44C131.77 72.356 131.899 72.244 132 72.104V71.285C131.666 71.2967 131.395 71.3293 131.188 71.383C130.982 71.4367 130.832 71.5172 130.736 71.6245C130.641 71.7318 130.593 71.8707 130.593 72.041C130.593 72.2253 130.642 72.3595 130.74 72.4435C130.84 72.5252 130.968 72.566 131.125 72.566ZM134.686 73.07C134.469 73.07 134.295 73.0303 134.164 72.951C134.034 72.8717 133.938 72.7702 133.877 72.6465C133.819 72.5205 133.79 72.3887 133.79 72.251V70.06H133.202L133.258 69.57H133.79V68.723L134.42 68.66V69.57H135.323V70.06H134.42V71.866C134.42 72.0853 134.433 72.244 134.458 72.342C134.484 72.44 134.547 72.5018 134.647 72.5275C134.75 72.5532 134.914 72.566 135.141 72.566H135.302L135.253 73.07H134.686ZM136.659 73.07C136.447 73.07 136.261 73.0268 136.103 72.9405C135.944 72.8542 135.82 72.7363 135.732 72.587C135.645 72.4377 135.602 72.2673 135.602 72.076C135.602 71.8823 135.644 71.7167 135.728 71.579C135.814 71.439 135.929 71.3235 136.071 71.2325C136.216 71.1392 136.377 71.0657 136.554 71.012C136.731 70.956 136.915 70.9163 137.104 70.893C137.295 70.8673 137.478 70.8533 137.653 70.851C137.653 70.5243 137.589 70.3108 137.461 70.2105C137.332 70.1102 137.147 70.06 136.904 70.06C136.776 70.06 136.638 70.0798 136.491 70.1195C136.346 70.1592 136.183 70.242 136.001 70.368L135.91 69.857C136.048 69.752 136.219 69.6668 136.425 69.6015C136.63 69.5338 136.846 69.5 137.072 69.5C137.361 69.5 137.595 69.5513 137.772 69.654C137.949 69.7543 138.079 69.9247 138.161 70.165C138.242 70.4053 138.283 70.732 138.283 71.145V71.845C138.283 72.0083 138.29 72.1437 138.304 72.251C138.32 72.356 138.355 72.4353 138.409 72.489C138.465 72.5403 138.554 72.566 138.675 72.566H138.738L138.64 73.07H138.591C138.388 73.07 138.231 73.0502 138.119 73.0105C138.009 72.9708 137.925 72.9137 137.867 72.839C137.808 72.7643 137.756 72.6733 137.709 72.566C137.581 72.7153 137.429 72.8367 137.254 72.93C137.079 73.0233 136.881 73.07 136.659 73.07ZM136.778 72.566C136.946 72.566 137.108 72.524 137.265 72.44C137.423 72.356 137.553 72.244 137.653 72.104V71.285C137.319 71.2967 137.049 71.3293 136.841 71.383C136.636 71.4367 136.485 71.5172 136.39 71.6245C136.294 71.7318 136.246 71.8707 136.246 72.041C136.246 72.2253 136.295 72.3595 136.393 72.4435C136.493 72.5252 136.622 72.566 136.778 72.566ZM141.448 73V69.059C141.28 69.1943 141.141 69.2912 141.031 69.3495C140.921 69.4078 140.818 69.4533 140.72 69.486L140.608 68.863C140.734 68.821 140.862 68.7615 140.993 68.6845C141.126 68.6052 141.248 68.5153 141.36 68.415C141.474 68.3147 141.567 68.2097 141.637 68.1H142.092V73H141.448ZM144.375 73.098C144.116 73.098 143.867 73.0642 143.629 72.9965C143.391 72.9288 143.185 72.839 143.01 72.727L143.171 72.111C143.343 72.2043 143.523 72.2848 143.71 72.3525C143.896 72.4202 144.106 72.454 144.34 72.454C144.652 72.454 144.906 72.3665 145.099 72.1915C145.293 72.0142 145.39 71.7773 145.39 71.481C145.39 71.145 145.285 70.8895 145.075 70.7145C144.865 70.5395 144.592 70.452 144.256 70.452C144.078 70.452 143.91 70.4648 143.752 70.4905C143.595 70.5162 143.434 70.55 143.269 70.592L143.57 68.1H145.88L145.852 68.73H144.116L143.934 70.263L143.787 69.976C143.892 69.955 144.003 69.9387 144.119 69.927C144.236 69.913 144.354 69.906 144.473 69.906C144.82 69.906 145.117 69.9748 145.362 70.1125C145.607 70.2478 145.793 70.4345 145.922 70.6725C146.052 70.9105 146.118 71.18 146.118 71.481C146.118 71.8123 146.041 72.0993 145.887 72.342C145.735 72.5823 145.527 72.769 145.264 72.902C145.002 73.0327 144.706 73.098 144.375 73.098ZM146.37 73.595L148.246 68.1H148.911L147.035 73.595H146.37ZM151.077 73.098C150.646 73.098 150.276 72.9872 149.968 72.7655C149.66 72.5438 149.423 72.2382 149.257 71.8485C149.094 71.4588 149.012 71.012 149.012 70.508C149.012 70.004 149.1 69.5642 149.275 69.1885C149.45 68.8128 149.692 68.5212 150.003 68.3135C150.313 68.1058 150.671 68.002 151.077 68.002C151.493 68.002 151.854 68.1058 152.162 68.3135C152.473 68.5212 152.713 68.8128 152.883 69.1885C153.056 69.5642 153.142 70.004 153.142 70.508C153.142 71.012 153.061 71.4588 152.897 71.8485C152.734 72.2382 152.498 72.5438 152.19 72.7655C151.882 72.9872 151.511 73.098 151.077 73.098ZM151.077 72.496C151.367 72.496 151.612 72.419 151.812 72.265C152.015 72.111 152.169 71.8858 152.274 71.5895C152.382 71.2932 152.435 70.9327 152.435 70.508C152.435 69.871 152.312 69.395 152.064 69.08C151.819 68.7627 151.49 68.604 151.077 68.604C150.685 68.604 150.361 68.7627 150.104 69.08C149.848 69.395 149.719 69.871 149.719 70.508C149.719 70.9327 149.772 71.2932 149.877 71.5895C149.984 71.8858 150.138 72.111 150.339 72.265C150.542 72.419 150.788 72.496 151.077 72.496ZM154.6 73V69.059C154.432 69.1943 154.293 69.2912 154.183 69.3495C154.074 69.4078 153.97 69.4533 153.872 69.486L153.76 68.863C153.886 68.821 154.014 68.7615 154.145 68.6845C154.278 68.6052 154.4 68.5153 154.512 68.415C154.627 68.3147 154.719 68.2097 154.789 68.1H155.244V73H154.6ZM155.735 73.595L157.611 68.1H158.276L156.4 73.595H155.735ZM158.467 72.993L159.804 70.963C159.951 70.7413 160.077 70.5395 160.182 70.3575C160.287 70.1755 160.366 70.0075 160.42 69.8535C160.476 69.6972 160.504 69.549 160.504 69.409C160.504 69.1663 160.435 68.9738 160.297 68.8315C160.162 68.6892 159.977 68.618 159.741 68.618C159.508 68.618 159.292 68.6682 159.093 68.7685C158.897 68.8688 158.717 69.003 158.551 69.171L158.467 68.471C158.628 68.3403 158.822 68.2283 159.048 68.135C159.277 68.0417 159.531 67.995 159.811 67.995C160.11 67.995 160.36 68.0545 160.563 68.1735C160.766 68.2925 160.919 68.4535 161.022 68.6565C161.125 68.8595 161.176 69.087 161.176 69.339C161.176 69.556 161.147 69.7625 161.088 69.9585C161.03 70.1522 160.943 70.354 160.826 70.564C160.709 70.774 160.565 71.0097 160.392 71.271L159.65 72.391H161.365V72.993H158.467ZM164.294 73V71.733H161.879L164.483 68.1H164.966V71.166H165.596V71.733H164.966V73H164.294ZM162.859 71.355L162.74 71.166H164.294V68.975L164.413 69.171L162.859 71.355Z" fill="#ECEEEF"/>
<path d="M29.6835 57.488H27.2835V56.8H29.6835V57.488ZM28.3715 54.144H28.5955L26.8755 59H26.0755L28.0835 53.4H28.8835L30.8915 59H30.0915L28.3715 54.144ZM33.1513 59.08C32.7086 59.08 32.3366 58.9907 32.0353 58.812C31.7366 58.6307 31.5099 58.388 31.3553 58.084C31.2033 57.7773 31.1273 57.4373 31.1273 57.064C31.1273 56.6747 31.2006 56.324 31.3473 56.012C31.4966 55.7 31.7246 55.4533 32.0313 55.272C32.3379 55.0907 32.7299 55 33.2073 55C33.4126 55 33.6059 55.0213 33.7873 55.064C33.9713 55.104 34.1353 55.16 34.2793 55.232L34.1673 55.864C34.0206 55.7947 33.8646 55.74 33.6993 55.7C33.5366 55.66 33.3673 55.64 33.1913 55.64C32.7593 55.64 32.4299 55.7627 32.2033 56.008C31.9766 56.2533 31.8633 56.5947 31.8633 57.032C31.8633 57.4587 31.9713 57.8013 32.1873 58.06C32.4033 58.3187 32.7326 58.448 33.1753 58.448C33.3566 58.448 33.5299 58.4267 33.6953 58.384C33.8633 58.3413 34.0233 58.2827 34.1753 58.208L34.2713 58.784C34.1646 58.8587 34.0086 58.9267 33.8033 58.988C33.5979 59.0493 33.3806 59.08 33.1513 59.08ZM34.9841 59V55.08H35.7041V59H34.9841ZM34.9841 54.2V53.4H35.7041V54.2H34.9841ZM36.6794 59V55.08H37.2394L37.3834 55.832L37.1114 55.704C37.3567 55.44 37.5954 55.2573 37.8274 55.156C38.0594 55.052 38.3034 55 38.5594 55C38.7514 55 38.9354 55.032 39.1114 55.096C39.2901 55.1573 39.4501 55.2667 39.5914 55.424C39.7354 55.5787 39.8501 55.7947 39.9354 56.072L39.7354 55.984C39.8527 55.68 40.0327 55.44 40.2754 55.264C40.5181 55.088 40.8447 55 41.2554 55C41.5834 55 41.8594 55.0613 42.0834 55.184C42.3074 55.304 42.4754 55.4893 42.5874 55.74C42.7021 55.988 42.7594 56.304 42.7594 56.688V59H42.0394V56.696C42.0394 56.328 41.9674 56.06 41.8234 55.892C41.6794 55.724 41.4447 55.64 41.1194 55.64C40.8901 55.64 40.7061 55.676 40.5674 55.748C40.4287 55.8173 40.3234 55.908 40.2514 56.02C40.1821 56.132 40.1354 56.2507 40.1114 56.376C40.0901 56.5013 40.0794 56.6187 40.0794 56.728V59H39.3594V56.84C39.3594 56.52 39.3207 56.2733 39.2434 56.1C39.1661 55.9267 39.0581 55.8067 38.9194 55.74C38.7807 55.6733 38.6207 55.64 38.4394 55.64C38.1754 55.64 37.9394 55.6987 37.7314 55.816C37.5234 55.9307 37.3834 56.1147 37.3114 56.368L37.3994 55.976V59H36.6794ZM44.607 59.08C44.3644 59.08 44.1524 59.0307 43.971 58.932C43.7897 58.8333 43.6484 58.6987 43.547 58.528C43.4484 58.3573 43.399 58.1627 43.399 57.944C43.399 57.7227 43.447 57.5333 43.543 57.376C43.6417 57.216 43.7724 57.084 43.935 56.98C44.1004 56.8733 44.2844 56.7893 44.487 56.728C44.6897 56.664 44.899 56.6187 45.115 56.592C45.3337 56.5627 45.543 56.5467 45.743 56.544C45.743 56.1707 45.6697 55.9267 45.523 55.812C45.3764 55.6973 45.1644 55.64 44.887 55.64C44.7404 55.64 44.583 55.6627 44.415 55.708C44.2497 55.7533 44.063 55.848 43.855 55.992L43.751 55.408C43.9084 55.288 44.1044 55.1907 44.339 55.116C44.5737 55.0387 44.8204 55 45.079 55C45.4097 55 45.6764 55.0587 45.879 55.176C46.0817 55.2907 46.2297 55.4853 46.323 55.76C46.4164 56.0347 46.463 56.408 46.463 56.88V57.68C46.463 57.8667 46.471 58.0213 46.487 58.144C46.5057 58.264 46.5457 58.3547 46.607 58.416C46.671 58.4747 46.7724 58.504 46.911 58.504H46.983L46.871 59.08H46.815C46.583 59.08 46.403 59.0573 46.275 59.012C46.1497 58.9667 46.0537 58.9013 45.987 58.816C45.9204 58.7307 45.8604 58.6267 45.807 58.504C45.6604 58.6747 45.487 58.8133 45.287 58.92C45.087 59.0267 44.8604 59.08 44.607 59.08ZM44.743 58.504C44.935 58.504 45.1204 58.456 45.299 58.36C45.4804 58.264 45.6284 58.136 45.743 57.976V57.04C45.3617 57.0533 45.0524 57.0907 44.815 57.152C44.5804 57.2133 44.4084 57.3053 44.299 57.428C44.1897 57.5507 44.135 57.7093 44.135 57.904C44.135 58.1147 44.191 58.268 44.303 58.364C44.4177 58.4573 44.5644 58.504 44.743 58.504ZM50.8877 59.08C50.5543 59.08 50.253 58.9893 49.9837 58.808C49.7143 58.6267 49.4997 58.3827 49.3397 58.076C49.1823 57.7693 49.1037 57.4267 49.1037 57.048C49.1037 56.688 49.1757 56.352 49.3197 56.04C49.4663 55.728 49.673 55.4773 49.9397 55.288C50.2063 55.096 50.5223 55 50.8877 55C51.149 55 51.401 55.0573 51.6437 55.172C51.889 55.284 52.0877 55.472 52.2397 55.736L52.0877 55.84V53H52.8077V59H52.1677L52.0317 58.168L52.2157 58.296C52.101 58.5547 51.921 58.7507 51.6757 58.884C51.4303 59.0147 51.1677 59.08 50.8877 59.08ZM51.0157 58.44C51.197 58.44 51.3757 58.3933 51.5517 58.3C51.7303 58.2067 51.877 58.0587 51.9917 57.856C52.109 57.6507 52.1677 57.3813 52.1677 57.048C52.1677 56.7387 52.109 56.48 51.9917 56.272C51.877 56.0613 51.7303 55.904 51.5517 55.8C51.3757 55.6933 51.197 55.64 51.0157 55.64C50.7703 55.64 50.5597 55.7013 50.3837 55.824C50.2077 55.9467 50.073 56.1147 49.9797 56.328C49.8863 56.5387 49.8397 56.7787 49.8397 57.048C49.8397 57.3013 49.8863 57.5333 49.9797 57.744C50.073 57.9547 50.2077 58.124 50.3837 58.252C50.5597 58.3773 50.7703 58.44 51.0157 58.44ZM55.6532 59.08C55.1918 59.08 54.8038 58.9853 54.4892 58.796C54.1745 58.6067 53.9358 58.356 53.7732 58.044C53.6132 57.7293 53.5332 57.384 53.5332 57.008C53.5332 56.6427 53.6078 56.308 53.7572 56.004C53.9092 55.7 54.1278 55.4573 54.4132 55.276C54.7012 55.092 55.0478 55 55.4532 55C55.7785 55 56.0678 55.0653 56.3212 55.196C56.5772 55.324 56.7772 55.512 56.9212 55.76C57.0678 56.0053 57.1412 56.304 57.1412 56.656C57.1412 56.712 57.1385 56.7733 57.1332 56.84C57.1305 56.904 57.1225 56.9707 57.1092 57.04H54.2692C54.3038 57.4027 54.3905 57.6853 54.5292 57.888C54.6678 58.0907 54.8425 58.2333 55.0532 58.316C55.2638 58.3987 55.4932 58.44 55.7412 58.44C55.9225 58.44 56.1118 58.4213 56.3092 58.384C56.5065 58.3467 56.6932 58.288 56.8692 58.208L56.9652 58.776C56.8132 58.8427 56.6278 58.9107 56.4092 58.98C56.1905 59.0467 55.9385 59.08 55.6532 59.08ZM54.3332 56.544H56.3972C56.3972 56.36 56.3625 56.2 56.2932 56.064C56.2238 55.928 56.1185 55.824 55.9772 55.752C55.8358 55.6773 55.6558 55.64 55.4372 55.64C55.1172 55.64 54.8705 55.72 54.6972 55.88C54.5265 56.0373 54.4052 56.2587 54.3332 56.544ZM60.4078 59V54.496C60.2158 54.6507 60.0571 54.7613 59.9318 54.828C59.8064 54.8947 59.6878 54.9467 59.5758 54.984L59.4478 54.272C59.5918 54.224 59.7384 54.156 59.8878 54.068C60.0398 53.9773 60.1798 53.8747 60.3078 53.76C60.4384 53.6453 60.5438 53.5253 60.6238 53.4H61.1438V59H60.4078ZM62.2412 58.992L63.7692 56.672C63.9372 56.4187 64.0812 56.188 64.2012 55.98C64.3212 55.772 64.4118 55.58 64.4732 55.404C64.5372 55.2253 64.5692 55.056 64.5692 54.896C64.5692 54.6187 64.4905 54.3987 64.3332 54.236C64.1785 54.0733 63.9665 53.992 63.6972 53.992C63.4305 53.992 63.1838 54.0493 62.9572 54.164C62.7332 54.2787 62.5265 54.432 62.3372 54.624L62.2412 53.824C62.4252 53.6747 62.6465 53.5467 62.9052 53.44C63.1665 53.3333 63.4572 53.28 63.7772 53.28C64.1185 53.28 64.4052 53.348 64.6372 53.484C64.8692 53.62 65.0438 53.804 65.1612 54.036C65.2785 54.268 65.3372 54.528 65.3372 54.816C65.3372 55.064 65.3038 55.3 65.2372 55.524C65.1705 55.7453 65.0705 55.976 64.9372 56.216C64.8038 56.456 64.6385 56.7253 64.4412 57.024L63.5932 58.304H65.5532V58.992H62.2412Z" fill="#ECEEEF"/>
<path d="M118.792 43V37.4H120.608C120.998 37.4 121.338 37.46 121.628 37.58C121.919 37.7 122.144 37.8853 122.304 38.136C122.464 38.3867 122.544 38.7093 122.544 39.104C122.544 39.488 122.46 39.8093 122.292 40.068C122.127 40.3267 121.886 40.5307 121.568 40.68L122.824 43H121.896L120.76 40.816C120.752 40.816 120.746 40.816 120.74 40.816C120.735 40.816 120.728 40.816 120.72 40.816H119.592V43H118.792ZM119.592 40.136H120.6C120.982 40.136 121.268 40.044 121.46 39.86C121.655 39.676 121.752 39.424 121.752 39.104C121.752 38.7787 121.655 38.5267 121.46 38.348C121.268 38.1693 120.982 38.08 120.6 38.08H119.592V40.136ZM125.213 43.112C124.981 43.112 124.749 43.0947 124.517 43.06C124.285 43.0253 124.07 42.9813 123.873 42.928C123.675 42.872 123.511 42.8133 123.381 42.752L123.485 41.944C123.629 42.0133 123.802 42.0853 124.005 42.16C124.21 42.2347 124.431 42.2973 124.669 42.348C124.906 42.3987 125.146 42.424 125.389 42.424C125.749 42.424 126.034 42.3587 126.245 42.228C126.458 42.0947 126.565 41.888 126.565 41.608C126.565 41.3973 126.511 41.2253 126.405 41.092C126.298 40.956 126.137 40.84 125.921 40.744C125.707 40.648 125.439 40.552 125.117 40.456C124.81 40.3653 124.527 40.2587 124.269 40.136C124.01 40.0107 123.802 39.844 123.645 39.636C123.49 39.4253 123.413 39.1467 123.413 38.8C123.413 38.504 123.489 38.2427 123.641 38.016C123.795 37.7867 124.021 37.608 124.317 37.48C124.615 37.352 124.981 37.288 125.413 37.288C125.781 37.288 126.118 37.328 126.425 37.408C126.734 37.488 126.989 37.576 127.189 37.672L127.109 38.48C126.805 38.2987 126.514 38.1693 126.237 38.092C125.962 38.0147 125.677 37.976 125.381 37.976C125.053 37.976 124.781 38.0373 124.565 38.16C124.351 38.2827 124.245 38.4827 124.245 38.76C124.245 38.9467 124.293 39.1 124.389 39.22C124.485 39.3373 124.627 39.4387 124.817 39.524C125.006 39.6067 125.242 39.6907 125.525 39.776C125.914 39.8933 126.249 40.028 126.529 40.18C126.809 40.3293 127.023 40.5147 127.173 40.736C127.322 40.9547 127.397 41.2267 127.397 41.552C127.397 41.792 127.351 42.008 127.261 42.2C127.17 42.392 127.034 42.556 126.853 42.692C126.671 42.828 126.443 42.932 126.169 43.004C125.897 43.076 125.578 43.112 125.213 43.112ZM125.141 44.152L125.221 42.728H125.685L125.765 44.152H125.141ZM125.221 37.616L125.141 36.248H125.765L125.685 37.616H125.221ZM129.897 42.992L131.425 40.672C131.593 40.4187 131.737 40.188 131.857 39.98C131.977 39.772 132.068 39.58 132.129 39.404C132.193 39.2253 132.225 39.056 132.225 38.896C132.225 38.6187 132.147 38.3987 131.989 38.236C131.835 38.0733 131.623 37.992 131.353 37.992C131.087 37.992 130.84 38.0493 130.613 38.164C130.389 38.2787 130.183 38.432 129.993 38.624L129.897 37.824C130.081 37.6747 130.303 37.5467 130.561 37.44C130.823 37.3333 131.113 37.28 131.433 37.28C131.775 37.28 132.061 37.348 132.293 37.484C132.525 37.62 132.7 37.804 132.817 38.036C132.935 38.268 132.993 38.528 132.993 38.816C132.993 39.064 132.96 39.3 132.893 39.524C132.827 39.7453 132.727 39.976 132.593 40.216C132.46 40.456 132.295 40.7253 132.097 41.024L131.249 42.304H133.209V42.992H129.897ZM136.429 43.112C135.935 43.112 135.513 42.9853 135.161 42.732C134.809 42.4787 134.538 42.1293 134.349 41.684C134.162 41.2387 134.069 40.728 134.069 40.152C134.069 39.576 134.169 39.0733 134.369 38.644C134.569 38.2147 134.846 37.8813 135.201 37.644C135.555 37.4067 135.965 37.288 136.429 37.288C136.903 37.288 137.317 37.4067 137.669 37.644C138.023 37.8813 138.298 38.2147 138.493 38.644C138.69 39.0733 138.789 39.576 138.789 40.152C138.789 40.728 138.695 41.2387 138.509 41.684C138.322 42.1293 138.053 42.4787 137.701 42.732C137.349 42.9853 136.925 43.112 136.429 43.112ZM136.429 42.424C136.759 42.424 137.039 42.336 137.269 42.16C137.501 41.984 137.677 41.7267 137.797 41.388C137.919 41.0493 137.981 40.6373 137.981 40.152C137.981 39.424 137.839 38.88 137.557 38.52C137.277 38.1573 136.901 37.976 136.429 37.976C135.981 37.976 135.61 38.1573 135.317 38.52C135.023 38.88 134.877 39.424 134.877 40.152C134.877 40.6373 134.937 41.0493 135.057 41.388C135.179 41.7267 135.355 41.984 135.585 42.16C135.817 42.336 136.098 42.424 136.429 42.424ZM139.994 43.856H139.538L139.826 43H139.546V42.152H140.41V42.92L139.994 43.856ZM143.468 43.112C142.974 43.112 142.552 42.9853 142.2 42.732C141.848 42.4787 141.577 42.1293 141.388 41.684C141.201 41.2387 141.108 40.728 141.108 40.152C141.108 39.576 141.208 39.0733 141.408 38.644C141.608 38.2147 141.885 37.8813 142.24 37.644C142.594 37.4067 143.004 37.288 143.468 37.288C143.942 37.288 144.356 37.4067 144.708 37.644C145.062 37.8813 145.337 38.2147 145.532 38.644C145.729 39.0733 145.828 39.576 145.828 40.152C145.828 40.728 145.734 41.2387 145.548 41.684C145.361 42.1293 145.092 42.4787 144.74 42.732C144.388 42.9853 143.964 43.112 143.468 43.112ZM143.468 42.424C143.798 42.424 144.078 42.336 144.308 42.16C144.54 41.984 144.716 41.7267 144.836 41.388C144.958 41.0493 145.02 40.6373 145.02 40.152C145.02 39.424 144.878 38.88 144.596 38.52C144.316 38.1573 143.94 37.976 143.468 37.976C143.02 37.976 142.649 38.1573 142.356 38.52C142.062 38.88 141.916 39.424 141.916 40.152C141.916 40.6373 141.976 41.0493 142.096 41.388C142.218 41.7267 142.394 41.984 142.624 42.16C142.856 42.336 143.137 42.424 143.468 42.424ZM149.054 43.112C148.56 43.112 148.138 42.9853 147.786 42.732C147.434 42.4787 147.163 42.1293 146.974 41.684C146.787 41.2387 146.694 40.728 146.694 40.152C146.694 39.576 146.794 39.0733 146.994 38.644C147.194 38.2147 147.471 37.8813 147.826 37.644C148.18 37.4067 148.59 37.288 149.054 37.288C149.528 37.288 149.942 37.4067 150.294 37.644C150.648 37.8813 150.923 38.2147 151.118 38.644C151.315 39.0733 151.414 39.576 151.414 40.152C151.414 40.728 151.32 41.2387 151.134 41.684C150.947 42.1293 150.678 42.4787 150.326 42.732C149.974 42.9853 149.55 43.112 149.054 43.112ZM149.054 42.424C149.384 42.424 149.664 42.336 149.894 42.16C150.126 41.984 150.302 41.7267 150.422 41.388C150.544 41.0493 150.606 40.6373 150.606 40.152C150.606 39.424 150.464 38.88 150.182 38.52C149.902 38.1573 149.526 37.976 149.054 37.976C148.606 37.976 148.235 38.1573 147.942 38.52C147.648 38.88 147.502 39.424 147.502 40.152C147.502 40.6373 147.562 41.0493 147.682 41.388C147.804 41.7267 147.98 41.984 148.21 42.16C148.442 42.336 148.723 42.424 149.054 42.424Z" fill="#ECEEEF"/>
<path d="M128.419 27.112C127.902 27.112 127.435 26.9933 127.019 26.756C126.606 26.516 126.278 26.1773 126.035 25.74C125.795 25.3027 125.675 24.7867 125.675 24.192C125.675 23.6027 125.799 23.0907 126.047 22.656C126.298 22.2213 126.641 21.8853 127.075 21.648C127.513 21.408 128.011 21.288 128.571 21.288C128.873 21.288 129.159 21.32 129.431 21.384C129.706 21.4453 129.945 21.52 130.147 21.608L130.075 22.272C129.857 22.1867 129.625 22.116 129.379 22.06C129.134 22.004 128.873 21.976 128.595 21.976C128.118 21.976 127.725 22.076 127.415 22.276C127.109 22.4733 126.881 22.74 126.731 23.076C126.582 23.412 126.507 23.7867 126.507 24.2C126.507 24.6267 126.583 25.008 126.735 25.344C126.887 25.6773 127.121 25.9413 127.435 26.136C127.75 26.328 128.15 26.424 128.635 26.424C128.755 26.424 128.905 26.4133 129.083 26.392C129.262 26.3707 129.425 26.3307 129.571 26.272V24.88H128.691V24.192H130.331V26.688C130.113 26.808 129.841 26.9093 129.515 26.992C129.19 27.072 128.825 27.112 128.419 27.112ZM131.179 27V23.08H131.771L131.859 23.728C132.059 23.48 132.25 23.2973 132.431 23.18C132.615 23.06 132.811 23 133.019 23C133.086 23 133.147 23.008 133.203 23.024L133.131 23.816C133.097 23.808 133.059 23.8027 133.019 23.8C132.982 23.7947 132.939 23.792 132.891 23.792C132.683 23.792 132.491 23.8387 132.315 23.932C132.142 24.0227 132.019 24.1227 131.947 24.232V27H131.179ZM134.568 27.08C134.325 27.08 134.113 27.0307 133.932 26.932C133.751 26.8333 133.609 26.6987 133.508 26.528C133.409 26.3573 133.36 26.1627 133.36 25.944C133.36 25.7227 133.408 25.5333 133.504 25.376C133.603 25.216 133.733 25.084 133.896 24.98C134.061 24.8733 134.245 24.7893 134.448 24.728C134.651 24.664 134.86 24.6187 135.076 24.592C135.295 24.5627 135.504 24.5467 135.704 24.544C135.704 24.1707 135.631 23.9267 135.484 23.812C135.337 23.6973 135.125 23.64 134.848 23.64C134.701 23.64 134.544 23.6627 134.376 23.708C134.211 23.7533 134.024 23.848 133.816 23.992L133.712 23.408C133.869 23.288 134.065 23.1907 134.3 23.116C134.535 23.0387 134.781 23 135.04 23C135.371 23 135.637 23.0587 135.84 23.176C136.043 23.2907 136.191 23.4853 136.284 23.76C136.377 24.0347 136.424 24.408 136.424 24.88V25.68C136.424 25.8667 136.432 26.0213 136.448 26.144C136.467 26.264 136.507 26.3547 136.568 26.416C136.632 26.4747 136.733 26.504 136.872 26.504H136.944L136.832 27.08H136.776C136.544 27.08 136.364 27.0573 136.236 27.012C136.111 26.9667 136.015 26.9013 135.948 26.816C135.881 26.7307 135.821 26.6267 135.768 26.504C135.621 26.6747 135.448 26.8133 135.248 26.92C135.048 27.0267 134.821 27.08 134.568 27.08ZM134.704 26.504C134.896 26.504 135.081 26.456 135.26 26.36C135.441 26.264 135.589 26.136 135.704 25.976V25.04C135.323 25.0533 135.013 25.0907 134.776 25.152C134.541 25.2133 134.369 25.3053 134.26 25.428C134.151 25.5507 134.096 25.7093 134.096 25.904C134.096 26.1147 134.152 26.268 134.264 26.364C134.379 26.4573 134.525 26.504 134.704 26.504ZM134.296 22.392V21.904L135.792 21.024V21.808L134.296 22.392ZM138.774 27.08C138.526 27.08 138.327 27.0347 138.178 26.944C138.028 26.8533 137.919 26.7373 137.85 26.596C137.783 26.452 137.75 26.3013 137.75 26.144V23.64H137.078L137.142 23.08H137.75V22.112L138.47 22.04V23.08H139.502V23.64H138.47V25.704C138.47 25.9547 138.484 26.136 138.514 26.248C138.543 26.36 138.615 26.4307 138.73 26.46C138.847 26.4893 139.035 26.504 139.294 26.504H139.478L139.422 27.08H138.774ZM140.117 27V23.08H140.837V27H140.117ZM140.117 22.2V21.4H140.837V22.2H140.117ZM142.924 27.08C142.578 27.08 142.29 27.0387 142.06 26.956C141.834 26.8733 141.674 26.8 141.58 26.736L141.668 26.04C141.754 26.1147 141.904 26.2 142.12 26.296C142.336 26.392 142.594 26.44 142.892 26.44C143.146 26.44 143.339 26.3973 143.472 26.312C143.608 26.2267 143.676 26.1067 143.676 25.952C143.676 25.816 143.632 25.7067 143.544 25.624C143.459 25.5387 143.355 25.472 143.232 25.424C143.112 25.3733 142.999 25.3333 142.892 25.304C142.714 25.256 142.528 25.196 142.336 25.124C142.147 25.0493 141.987 24.9387 141.856 24.792C141.726 24.6453 141.66 24.44 141.66 24.176C141.66 23.976 141.708 23.7867 141.804 23.608C141.9 23.4267 142.056 23.28 142.272 23.168C142.488 23.056 142.775 23 143.132 23C143.394 23 143.606 23.028 143.768 23.084C143.934 23.1373 144.076 23.1947 144.196 23.256L144.108 23.912C143.994 23.816 143.86 23.7347 143.708 23.668C143.556 23.6013 143.37 23.568 143.148 23.568C142.924 23.568 142.742 23.6107 142.6 23.696C142.459 23.7787 142.388 23.912 142.388 24.096C142.388 24.28 142.463 24.4107 142.612 24.488C142.764 24.5653 142.994 24.6507 143.3 24.744C143.396 24.7707 143.507 24.8093 143.632 24.86C143.76 24.9107 143.884 24.9787 144.004 25.064C144.124 25.1493 144.223 25.2613 144.3 25.4C144.38 25.536 144.42 25.7067 144.42 25.912C144.42 26.0853 144.379 26.2627 144.296 26.444C144.214 26.6227 144.064 26.7733 143.848 26.896C143.632 27.0187 143.324 27.08 142.924 27.08Z" fill="#ECEEEF"/>
<path d="M118.578 59V53.4H120.394C120.783 53.4 121.123 53.46 121.414 53.58C121.704 53.7 121.93 53.8853 122.09 54.136C122.25 54.3867 122.33 54.7093 122.33 55.104C122.33 55.488 122.246 55.8093 122.078 56.068C121.912 56.3267 121.671 56.5307 121.354 56.68L122.61 59H121.682L120.546 56.816C120.538 56.816 120.531 56.816 120.526 56.816C120.52 56.816 120.514 56.816 120.506 56.816H119.378V59H118.578ZM119.378 56.136H120.386C120.767 56.136 121.054 56.044 121.246 55.86C121.44 55.676 121.538 55.424 121.538 55.104C121.538 54.7787 121.44 54.5267 121.246 54.348C121.054 54.1693 120.767 54.08 120.386 54.08H119.378V56.136ZM124.998 59.112C124.766 59.112 124.534 59.0947 124.302 59.06C124.07 59.0253 123.855 58.9813 123.658 58.928C123.46 58.872 123.296 58.8133 123.166 58.752L123.27 57.944C123.414 58.0133 123.587 58.0853 123.79 58.16C123.995 58.2347 124.216 58.2973 124.454 58.348C124.691 58.3987 124.931 58.424 125.174 58.424C125.534 58.424 125.819 58.3587 126.03 58.228C126.243 58.0947 126.35 57.888 126.35 57.608C126.35 57.3973 126.296 57.2253 126.19 57.092C126.083 56.956 125.922 56.84 125.706 56.744C125.492 56.648 125.224 56.552 124.902 56.456C124.595 56.3653 124.312 56.2587 124.054 56.136C123.795 56.0107 123.587 55.844 123.43 55.636C123.275 55.4253 123.198 55.1467 123.198 54.8C123.198 54.504 123.274 54.2427 123.426 54.016C123.58 53.7867 123.806 53.608 124.102 53.48C124.4 53.352 124.766 53.288 125.198 53.288C125.566 53.288 125.903 53.328 126.21 53.408C126.519 53.488 126.774 53.576 126.974 53.672L126.894 54.48C126.59 54.2987 126.299 54.1693 126.022 54.092C125.747 54.0147 125.462 53.976 125.166 53.976C124.838 53.976 124.566 54.0373 124.35 54.16C124.136 54.2827 124.03 54.4827 124.03 54.76C124.03 54.9467 124.078 55.1 124.174 55.22C124.27 55.3373 124.412 55.4387 124.602 55.524C124.791 55.6067 125.027 55.6907 125.31 55.776C125.699 55.8933 126.034 56.028 126.314 56.18C126.594 56.3293 126.808 56.5147 126.958 56.736C127.107 56.9547 127.182 57.2267 127.182 57.552C127.182 57.792 127.136 58.008 127.046 58.2C126.955 58.392 126.819 58.556 126.638 58.692C126.456 58.828 126.228 58.932 125.954 59.004C125.682 59.076 125.363 59.112 124.998 59.112ZM124.926 60.152L125.006 58.728H125.47L125.55 60.152H124.926ZM125.006 53.616L124.926 52.248H125.55L125.47 53.616H125.006ZM132.147 59V57.552H129.387L132.363 53.4H132.915V56.904H133.635V57.552H132.915V59H132.147ZM130.507 57.12L130.371 56.904H132.147V54.4L132.283 54.624L130.507 57.12ZM136.644 59.112C136.15 59.112 135.728 58.9853 135.376 58.732C135.024 58.4787 134.753 58.1293 134.564 57.684C134.377 57.2387 134.284 56.728 134.284 56.152C134.284 55.576 134.384 55.0733 134.584 54.644C134.784 54.2147 135.061 53.8813 135.416 53.644C135.77 53.4067 136.18 53.288 136.644 53.288C137.118 53.288 137.532 53.4067 137.884 53.644C138.238 53.8813 138.513 54.2147 138.708 54.644C138.905 55.0733 139.004 55.576 139.004 56.152C139.004 56.728 138.91 57.2387 138.724 57.684C138.537 58.1293 138.268 58.4787 137.916 58.732C137.564 58.9853 137.14 59.112 136.644 59.112ZM136.644 58.424C136.974 58.424 137.254 58.336 137.484 58.16C137.716 57.984 137.892 57.7267 138.012 57.388C138.134 57.0493 138.196 56.6373 138.196 56.152C138.196 55.424 138.054 54.88 137.772 54.52C137.492 54.1573 137.116 53.976 136.644 53.976C136.196 53.976 135.825 54.1573 135.532 54.52C135.238 54.88 135.092 55.424 135.092 56.152C135.092 56.6373 135.152 57.0493 135.272 57.388C135.394 57.7267 135.57 57.984 135.8 58.16C136.032 58.336 136.313 58.424 136.644 58.424ZM140.209 59.856H139.753L140.041 59H139.761V58.152H140.625V58.92L140.209 59.856ZM143.683 59.112C143.189 59.112 142.767 58.9853 142.415 58.732C142.063 58.4787 141.792 58.1293 141.603 57.684C141.416 57.2387 141.323 56.728 141.323 56.152C141.323 55.576 141.423 55.0733 141.623 54.644C141.823 54.2147 142.1 53.8813 142.455 53.644C142.809 53.4067 143.219 53.288 143.683 53.288C144.157 53.288 144.571 53.4067 144.923 53.644C145.277 53.8813 145.552 54.2147 145.747 54.644C145.944 55.0733 146.043 55.576 146.043 56.152C146.043 56.728 145.949 57.2387 145.763 57.684C145.576 58.1293 145.307 58.4787 144.955 58.732C144.603 58.9853 144.179 59.112 143.683 59.112ZM143.683 58.424C144.013 58.424 144.293 58.336 144.523 58.16C144.755 57.984 144.931 57.7267 145.051 57.388C145.173 57.0493 145.235 56.6373 145.235 56.152C145.235 55.424 145.093 54.88 144.811 54.52C144.531 54.1573 144.155 53.976 143.683 53.976C143.235 53.976 142.864 54.1573 142.571 54.52C142.277 54.88 142.131 55.424 142.131 56.152C142.131 56.6373 142.191 57.0493 142.311 57.388C142.433 57.7267 142.609 57.984 142.839 58.16C143.071 58.336 143.352 58.424 143.683 58.424ZM149.269 59.112C148.775 59.112 148.353 58.9853 148.001 58.732C147.649 58.4787 147.378 58.1293 147.189 57.684C147.002 57.2387 146.909 56.728 146.909 56.152C146.909 55.576 147.009 55.0733 147.209 54.644C147.409 54.2147 147.686 53.8813 148.041 53.644C148.395 53.4067 148.805 53.288 149.269 53.288C149.743 53.288 150.157 53.4067 150.509 53.644C150.863 53.8813 151.138 54.2147 151.333 54.644C151.53 55.0733 151.629 55.576 151.629 56.152C151.629 56.728 151.535 57.2387 151.349 57.684C151.162 58.1293 150.893 58.4787 150.541 58.732C150.189 58.9853 149.765 59.112 149.269 59.112ZM149.269 58.424C149.599 58.424 149.879 58.336 150.109 58.16C150.341 57.984 150.517 57.7267 150.637 57.388C150.759 57.0493 150.821 56.6373 150.821 56.152C150.821 55.424 150.679 54.88 150.397 54.52C150.117 54.1573 149.741 53.976 149.269 53.976C148.821 53.976 148.45 54.1573 148.157 54.52C147.863 54.88 147.717 55.424 147.717 56.152C147.717 56.6373 147.777 57.0493 147.897 57.388C148.019 57.7267 148.195 57.984 148.425 58.16C148.657 58.336 148.938 58.424 149.269 58.424Z" fill="#ECEEEF"/>
<path d="M122.418 12L119.908 5H120.908L123.058 11.07H122.778L124.928 5H125.928L123.418 12H122.418ZM130.063 10.11H127.063V9.25H130.063V10.11ZM128.423 5.93H128.703L126.553 12H125.553L128.063 5H129.063L131.573 12H130.573L128.423 5.93ZM132.446 12V5H133.396V11.14H136.606V12H132.446ZM140.261 12.14C139.594 12.14 139.001 11.9917 138.481 11.695C137.961 11.395 137.553 10.9733 137.256 10.43C136.959 9.88333 136.811 9.24 136.811 8.5C136.811 7.76 136.959 7.11833 137.256 6.575C137.553 6.02833 137.961 5.60667 138.481 5.31C139.001 5.01 139.594 4.86 140.261 4.86C140.928 4.86 141.521 5.01 142.041 5.31C142.561 5.60667 142.969 6.02833 143.266 6.575C143.563 7.11833 143.711 7.76 143.711 8.5C143.711 9.24 143.563 9.88333 143.266 10.43C142.969 10.9733 142.561 11.395 142.041 11.695C141.521 11.9917 140.928 12.14 140.261 12.14ZM140.261 11.22C140.798 11.22 141.246 11.1 141.606 10.86C141.966 10.6167 142.236 10.29 142.416 9.88C142.599 9.46667 142.691 9.00667 142.691 8.5C142.691 7.99333 142.599 7.535 142.416 7.125C142.236 6.71167 141.966 6.385 141.606 6.145C141.246 5.90167 140.798 5.78 140.261 5.78C139.724 5.78 139.276 5.90167 138.916 6.145C138.556 6.385 138.284 6.71167 138.101 7.125C137.921 7.535 137.831 7.99333 137.831 8.5C137.831 9.00667 137.921 9.46667 138.101 9.88C138.284 10.29 138.556 10.6167 138.916 10.86C139.276 11.1 139.724 11.22 140.261 11.22ZM144.906 12V5H147.176C147.663 5 148.088 5.075 148.451 5.225C148.815 5.375 149.096 5.60667 149.296 5.92C149.496 6.23333 149.596 6.63667 149.596 7.13C149.596 7.61 149.491 8.01167 149.281 8.335C149.075 8.65833 148.773 8.91333 148.376 9.1L149.946 12H148.786L147.366 9.27C147.356 9.27 147.348 9.27 147.341 9.27C147.335 9.27 147.326 9.27 147.316 9.27H145.906V12H144.906ZM145.906 8.42H147.166C147.643 8.42 148.001 8.305 148.241 8.075C148.485 7.845 148.606 7.53 148.606 7.13C148.606 6.72333 148.485 6.40833 148.241 6.185C148.001 5.96167 147.643 5.85 147.166 5.85H145.906V8.42Z" fill="#ECEEEF"/>
<rect x="1" y="1" width="178" height="63" rx="1" stroke="#44BCFF" stroke-width="2"/>
<line y1="16" x2="180" y2="16" stroke="#44BCFF" stroke-width="2"/>
<line y1="32" x2="180" y2="32" stroke="#44BCFF" stroke-width="2"/>
<line x1="91" y1="65" x2="91" stroke="#44BCFF" stroke-width="2"/>
<line y1="48" x2="180" y2="48" stroke="#44BCFF" stroke-width="2"/>
</svg>
